<svg xmlns="http://www.w3.org/2000/svg" xmlns:xlink="http://www.w3.org/1999/xlink"><defs><style>
    .sprite-symbol-usage {display: none;}
    .sprite-symbol-usage:target {display: inline;}
  </style><symbol viewBox="0 0 32 32" id="arrow-back">
<title>arrow-back</title>
<path d="M8.193 24.703l-7.833-7.833c-0.481-0.481-0.481-1.26 0-1.741l7.833-7.833c0.481-0.481 1.26-0.481 1.741 0s0.481 1.26 0 1.741l-5.732 5.732h27.798v2.462h-27.798l5.732 5.732c0.481 0.481 0.481 1.26 0 1.741s-1.26 0.481-1.741 0z" />
</symbol><symbol viewBox="0 0 36 32" id="arrow-back-2">
<title>arrow-back-2</title>
<path d="M10.431 0.458c-0.236 0.072-0.441 0.168-0.629 0.288l0.010-0.006c-0.408 0.274-8.673 9.667-8.885 10.097-0.121 0.254-0.192 0.552-0.192 0.866 0 0.417 0.125 0.805 0.339 1.129l-0.005-0.008c0.092 0.135 2.070 2.321 4.397 4.857 4.838 5.276 4.486 4.957 5.478 4.957 0.65 0 0.957-0.117 1.407-0.538 0.42-0.392 0.633-0.888 0.637-1.48 0.006-0.818-0.022-0.856-2.911-4.003-1.397-1.522-2.539-2.791-2.539-2.82 0-0.031 3.905-0.046 9.24-0.035l9.238 0.018 0.506 0.135c2.003 0.536 3.629 2.081 4.37 4.159 0.565 1.582 0.565 3.517-0.001 5.092-0.584 1.629-1.752 2.986-3.186 3.709-0.941 0.473-1.798 0.618-3.661 0.618-1.457 0-1.699 0.057-2.219 0.525-1.084 0.974-0.842 2.701 0.469 3.346l0.403 0.199 1.448 0.019c1.53 0.021 2.314-0.038 3.167-0.235 3.232-0.747 5.882-3.026 7.222-6.205 2.020-4.793 0.565-10.504-3.435-13.487-1.269-0.946-2.474-1.491-4.058-1.839l-0.602-0.131-9.511-0.021c-5.231-0.011-9.511-0.039-9.511-0.063 0-0.025 1.178-1.382 2.618-3.015s2.673-3.086 2.741-3.225c0.399-0.831 0.255-1.728-0.384-2.367-0.272-0.285-0.63-0.487-1.033-0.562l-0.012-0.002c-0.399-0.085-0.504-0.082-0.915 0.028z" />
</symbol><symbol viewBox="0 0 36 32" id="arrow-right">
<title>arrow-right</title>
<path d="M19.978 1.102c0.764-0.705 1.955-0.657 2.66 0.107l12.158 13.176c0.665 0.721 0.665 1.832 0 2.553l-12.158 13.176c-0.705 0.764-1.896 0.812-2.66 0.107s-0.812-1.896-0.107-2.66l9.243-10.018h-25.82c-1.040 0-1.882-0.843-1.882-1.882s0.843-1.882 1.882-1.882h25.82l-9.243-10.018c-0.705-0.764-0.657-1.955 0.107-2.66z" />
</symbol><symbol viewBox="0 0 32 32" id="bag">
<title>bag</title>
<path d="M15.715 0.129l0.009-0c3.268 0.009 6.311 2.090 6.998 5.287 0.206 0.96-0.405 1.905-1.365 2.112s-1.905-0.405-2.111-1.365c-0.279-1.298-1.648-2.471-3.526-2.478-1.87 0.007-3.238 1.171-3.524 2.464-0.212 0.959-1.161 1.564-2.12 1.352s-1.564-1.161-1.352-2.12c0.703-3.179 3.736-5.243 6.991-5.252zM6.643 7.746c0.022-0.001 0.043-0.001 0.065-0.001h18.018c0.022 0 0.043 0 0.065 0.001 1.801 0.066 3.554 1.35 3.75 3.33l2.84 14.948c0.002 0.009 0.003 0.018 0.005 0.028 0.001 0.008 0.003 0.017 0.004 0.025 0.176 1.109-0.19 2.198-0.93 2.996-0.73 0.788-1.752 1.225-2.796 1.274-0.028 0.001-0.056 0.002-0.083 0.002h-23.73c-0.028 0-0.056-0.001-0.083-0.002-1.043-0.049-2.065-0.486-2.796-1.274-0.74-0.798-1.106-1.887-0.93-2.996 0.003-0.018 0.006-0.035 0.009-0.053l2.84-14.948c0.196-1.98 1.949-3.264 3.75-3.33zM6.75 11.301c-0.141 0.010-0.237 0.062-0.287 0.106-0.020 0.017-0.029 0.030-0.034 0.037-0.005 0.069-0.014 0.138-0.027 0.206l-2.845 14.976c0.001 0.001 0.001 0.002 0.002 0.003 0.004 0.006 0.010 0.016 0.022 0.029 0.048 0.051 0.158 0.122 0.325 0.137h23.621c0.167-0.015 0.277-0.085 0.325-0.137 0.012-0.013 0.018-0.022 0.022-0.029 0.001-0.001 0.001-0.002 0.002-0.003l-2.845-14.976c-0.013-0.068-0.022-0.137-0.027-0.206-0.004-0.007-0.014-0.019-0.034-0.037-0.050-0.044-0.146-0.096-0.287-0.106h-17.933zM25.007 11.45c-0 0-0.001-0.001-0.002-0.004 0.001 0.002 0.002 0.004 0.002 0.004zM6.427 11.45c-0-0 0-0.001 0.002-0.004-0.001 0.003-0.001 0.004-0.002 0.004z" />
</symbol><symbol viewBox="0 0 36 32" id="basket_icon">
<title>basket_icon</title>
<path d="M31.203 16.171l-1.712-0.478-0.022 0.079-0.015 0.081 1.749 0.318zM28.628 18.477l0.040-1.777-0.020-0h-0.020v1.778zM15.755 18.477v-1.778h-0.020l-0.020 0 0.040 1.777zM13.18 16.171l1.749-0.318-0.015-0.081-0.022-0.079-1.712 0.478zM1.778 1.014c-0.982 0-1.778 0.796-1.778 1.778s0.796 1.778 1.778 1.778v-3.556zM33.148 9.199v0zM7.912 3.478v0zM6.508 4.569l2.694 3.465 2.807-2.182-2.694-3.465-2.807 2.182zM31.436 8.721l-1.945 6.971 3.425 0.956 1.945-6.971-3.425-0.956zM29.454 15.852c-0.054 0.299-0.195 0.529-0.352 0.67l2.373 2.648c0.784-0.702 1.291-1.658 1.477-2.681l-3.498-0.637zM29.102 16.522c-0.152 0.136-0.307 0.181-0.434 0.178l-0.080 3.555c1.077 0.024 2.098-0.378 2.887-1.085l-2.373-2.648zM28.628 16.7h-12.873v3.556h12.873v-3.556zM15.715 16.7c-0.127 0.003-0.282-0.042-0.434-0.178l-2.373 2.648c0.789 0.707 1.809 1.109 2.887 1.085l-0.080-3.555zM15.281 16.522c-0.157-0.141-0.297-0.371-0.352-0.67l-3.498 0.637c0.186 1.023 0.693 1.979 1.477 2.681l2.373-2.648zM14.892 15.693l-2.575-9.227-3.425 0.956 2.575 9.227 3.425-0.956zM10.605 8.721h20.831v-3.556h-20.831v3.556zM6.508 1.014h-4.73v3.556h4.73v-3.556zM16 27.89c0-0.149 0.113-0.209 0.178-0.209v3.556c1.832 0 3.378-1.465 3.378-3.346h-3.556zM16.178 27.681c0.065 0 0.178 0.061 0.178 0.209h-3.556c0 1.881 1.546 3.346 3.378 3.346v-3.556zM16.356 27.89c0 0.148-0.113 0.209-0.178 0.209v-3.556c-1.832 0-3.378 1.465-3.378 3.346h3.556zM16.178 28.099c-0.065 0-0.178-0.061-0.178-0.209h3.556c0-1.881-1.546-3.346-3.378-3.346v3.556zM27.2 27.89c0-0.149 0.113-0.209 0.178-0.209v3.556c1.832 0 3.378-1.465 3.378-3.346h-3.556zM27.378 27.681c0.065 0 0.178 0.061 0.178 0.209h-3.556c0 1.881 1.546 3.346 3.378 3.346v-3.556zM27.556 27.89c0 0.148-0.113 0.209-0.178 0.209v-3.556c-1.832 0-3.378 1.465-3.378 3.346h3.556zM27.378 28.099c-0.065 0-0.178-0.061-0.178-0.209h3.556c0-1.881-1.546-3.346-3.378-3.346v3.556zM34.861 9.677c0.632-2.267-1.072-4.511-3.425-4.511v3.556l3.425 0.956zM9.315 2.387c-0.674-0.867-1.71-1.373-2.807-1.373v3.556l2.807-2.182z" />
</symbol><symbol viewBox="0 0 43 32" id="burger-menu">
<title>burger-menu</title>
<path d="M41.244 2.844h-39.822c-0.785 0-1.422-0.637-1.422-1.422s0.637-1.422 1.422-1.422h39.822c0.785 0 1.422 0.637 1.422 1.422s-0.637 1.422-1.422 1.422z" />
<path d="M41.244 17.067h-39.822c-0.785 0-1.422-0.637-1.422-1.422s0.637-1.422 1.422-1.422h39.822c0.785 0 1.422 0.637 1.422 1.422s-0.637 1.422-1.422 1.422z" />
<path d="M1.422 31.289h39.822c0.785 0 1.422-0.637 1.422-1.422s-0.637-1.422-1.422-1.422h-39.822c-0.785 0-1.422 0.637-1.422 1.422s0.637 1.422 1.422 1.422z" />
</symbol><symbol viewBox="0 0 32 32" id="calendar">
<title>calendar</title>
<path d="M8 9c0.552 0 1-0.448 1-1v-6c0-0.552-0.448-1-1-1s-1 0.448-1 1v6c0 0.552 0.448 1 1 1zM25 8c0 0.552-0.448 1-1 1s-1-0.448-1-1v-6c0-0.552 0.448-1 1-1s1 0.448 1 1v6zM21 5h-10v2h10v-2zM26 25v-2h-2v2h2zM18 23h2v2h-2v-2zM14 23h-2v2h2v-2zM6 23h2v2h-2v-2zM26 20v-2h-2v2h2zM18 18h2v2h-2v-2zM14 18h-2v2h2v-2zM6 18h2v2h-2v-2zM26 15v-2h-2v2h2zM18 13h2v2h-2v-2zM14 13h-2v2h2v-2zM6 13h2v2h-2v-2zM27 5h3.25c0.472 0.008 0.922 0.203 1.25 0.542s0.508 0.795 0.5 1.268v22.38c0.008 0.472-0.172 0.928-0.5 1.267s-0.778 0.535-1.25 0.543h-28.499c-0.472-0.008-0.922-0.203-1.25-0.543s-0.508-0.795-0.5-1.267v-22.38c-0.008-0.472 0.172-0.928 0.5-1.268s0.778-0.535 1.25-0.542h3.25v2h-3v22h27.999v-22h-3v-2z" />
</symbol><symbol viewBox="0 0 32 32" id="close">
<title>close</title>
<path d="M18.351 15.964l13.264-13.229c0.544-0.633 0.507-1.577-0.084-2.166s-1.537-0.626-2.172-0.084l-13.264 13.229-13.264-13.244c-0.627-0.626-1.645-0.626-2.272 0s-0.627 1.64 0 2.266l13.28 13.229-13.28 13.228c-0.457 0.39-0.655 1.002-0.515 1.585s0.597 1.038 1.181 1.178c0.584 0.14 1.198-0.058 1.589-0.513l13.28-13.229 13.264 13.229c0.635 0.542 1.581 0.506 2.172-0.084s0.628-1.533 0.084-2.166l-13.264-13.228z" />
</symbol><symbol viewBox="0 0 32 32" id="danger">
<title>danger</title>
<path d="M31.638 26.497l-12.987-23.898c-0.527-0.97-1.542-1.574-2.646-1.574s-2.119 0.604-2.646 1.574l-12.978 23.898c-0.522 0.935-0.508 2.077 0.036 2.999s1.538 1.485 2.61 1.479h25.964c1.060-0.001 2.041-0.559 2.583-1.47s0.566-2.039 0.063-2.971v-0.037zM14.809 8.536c0-0.723 0.586-1.309 1.309-1.309s1.309 0.586 1.309 1.309v11.22c0 0.723-0.586 1.309-1.309 1.309s-1.309-0.586-1.309-1.309v-11.22zM14.435 25.412c0-0.93 0.754-1.683 1.683-1.683s1.683 0.753 1.683 1.683c0 0.446-0.177 0.874-0.493 1.19s-0.744 0.493-1.19 0.493c-0.929 0-1.683-0.754-1.683-1.683z" />
</symbol><symbol viewBox="0 0 32 32" id="dropdown">
<title>dropdown</title>
<path d="M31.359 9.973l-15.362 15.896-15.362-15.896c-0.869-0.902-0.842-2.338 0.060-3.207s2.338-0.842 3.207 0.060l12.095 12.522 12.108-12.522c0.869-0.902 2.305-0.929 3.207-0.060s0.916 2.305 0.047 3.207z" />
</symbol><symbol viewBox="0 0 30 32" id="exit">
<title>exit</title>
<path d="M1.411 2.551c0.909-0.933 2.151-1.464 3.454-1.464h11.695c1.303 0 2.545 0.532 3.454 1.464 0.908 0.932 1.411 2.187 1.411 3.488v3.429c0 0.842-0.682 1.524-1.524 1.524s-1.524-0.682-1.524-1.524v-3.429c0-0.518-0.201-1.006-0.546-1.361-0.344-0.353-0.802-0.544-1.271-0.544h-11.695c-0.469 0-0.927 0.191-1.271 0.544-0.345 0.354-0.546 0.843-0.546 1.361v20.571c0 0.518 0.201 1.006 0.546 1.361 0.344 0.353 0.802 0.544 1.271 0.544h11.695c0.469 0 0.927-0.191 1.271-0.544 0.345-0.354 0.546-0.843 0.546-1.361v-3.429c0-0.842 0.682-1.524 1.524-1.524s1.524 0.682 1.524 1.524v3.429c0 1.301-0.503 2.556-1.411 3.488-0.909 0.933-2.151 1.465-3.454 1.465h-11.695c-1.303 0-2.545-0.532-3.454-1.465-0.908-0.931-1.411-2.187-1.411-3.488v-20.571c0-1.301 0.503-2.556 1.411-3.488zM22.379 9.578c0.628-0.561 1.591-0.506 2.152 0.121l5.012 5.611c0.517 0.578 0.516 1.452-0 2.030l-5.012 5.609c-0.561 0.628-1.524 0.682-2.151 0.121s-0.682-1.524-0.121-2.152l2.743-3.070h-16.643c-0.842 0-1.524-0.682-1.524-1.524s0.682-1.524 1.524-1.524h16.644l-2.744-3.072c-0.561-0.628-0.506-1.591 0.121-2.152z" />
</symbol><symbol viewBox="0 0 32 32" id="external">
<title>external</title>
<path d="M14.933 1.067c0-0.589 0.478-1.067 1.067-1.067h16v16c0 0.589-0.478 1.067-1.067 1.067s-1.067-0.478-1.067-1.067v-12.363l-14.773 14.773c-0.261 0.304-0.67 0.437-1.060 0.343s-0.694-0.398-0.788-0.788c-0.094-0.39 0.039-0.799 0.343-1.060l14.773-14.773h-12.363c-0.589 0-1.067-0.478-1.067-1.067zM2.133 32h23.467c1.178 0 2.133-0.955 2.133-2.133v-10.667h-2.133v10.667h-23.467v-23.467h10.667v-2.133h-10.667c-1.178 0-2.133 0.955-2.133 2.133v23.467c0 1.178 0.955 2.133 2.133 2.133z" />
</symbol><symbol viewBox="0 0 32 32" id="eye">
<title>eye</title>
<path d="M31.741 15.527l0.259 0.468-0.259 0.478c-3.343 6.249-9.234 9.95-15.741 9.95s-12.388-3.751-15.741-9.95l-0.259-0.478 0.279-0.468c3.323-6.199 9.214-9.95 15.721-9.95s12.388 3.751 15.741 9.95zM9.513 16.068c-0.024-3.767 3.009-6.841 6.776-6.869 1.814-0.013 3.558 0.696 4.848 1.971s2.019 3.011 2.027 4.825c0.016 3.767-3.022 6.835-6.789 6.856s-6.838-3.016-6.862-6.783zM11.503 16.002c-0.013 2.66 2.126 4.831 4.786 4.859 1.295 0.011 2.541-0.498 3.459-1.412s1.432-2.158 1.426-3.453c-0.017-2.66-2.179-4.808-4.839-4.806s-4.819 2.152-4.832 4.813zM2.269 15.995c2.985 5.264 8.129 8.388 13.731 8.388 5.592 0 10.687-3.124 13.721-8.388-3.035-5.254-8.12-8.388-13.722-8.388s-10.746 3.124-13.731 8.388z" />
</symbol><symbol viewBox="0 0 32 32" id="eye-closed">
<title>eye-closed</title>
<path d="M2.474 3.816l1.699-1.481 25.839 25.839-1.739 1.491-4.969-4.969c-2.284 1.105-4.787 1.679-7.324 1.679-6.499 0-12.373-3.747-15.722-9.938l-0.258-0.477 0.258-0.467c1.557-2.946 3.847-5.441 6.648-7.245l-4.432-4.432zM12.164 13.506c-0.457 0.738-0.704 1.587-0.716 2.455-0.008 1.289 0.498 2.527 1.407 3.442s2.144 1.428 3.433 1.428c0.878-0.006 1.738-0.254 2.485-0.716l-6.609-6.609zM11.463 20.816c-2.347-2.347-2.659-6.044-0.739-8.751l-2.375-2.365c-2.532 1.529-4.627 3.685-6.082 6.261 3.031 5.257 8.119 8.378 13.714 8.378 2.002 0 3.983-0.406 5.824-1.193l-1.59-1.59c-2.707 1.92-6.404 1.607-8.751-0.74zM31.712 15.493c-3.349-6.191-9.222-9.938-15.722-9.938-1.77 0.004-3.527 0.289-5.207 0.845l1.6 1.61c1.178-0.304 2.39-0.461 3.607-0.467 5.595 0 10.683 3.12 13.714 8.378-1.112 1.95-2.586 3.671-4.343 5.068l1.411 1.411c2.033-1.64 3.722-3.667 4.969-5.963l0.258-0.477-0.288-0.467zM23.096 15.96c0.003 0.814-0.142 1.622-0.427 2.385l-1.62-1.65c0.039-0.243 0.059-0.489 0.060-0.735-0.022-2.661-2.188-4.806-4.85-4.8-0.246 0.001-0.492 0.021-0.735 0.060l-1.6-1.65c0.753-0.282 1.551-0.426 2.355-0.427 3.765 0 6.817 3.052 6.817 6.818z" />
</symbol><symbol viewBox="0 0 32 32" id="file">
<title>file</title>
<path d="M28.364 9.339c0.118 0.124 0.185 0.289 0.185 0.46v19.548c0 1.462-1.187 2.652-2.647 2.652h-19.804c-1.459 0-2.647-1.191-2.647-2.654v-26.688c0-1.466 1.187-2.658 2.647-2.658h13.041c0.18 0 0.351 0.073 0.476 0.203l8.75 9.136zM19.302 1.792l-0 6.168c0.007 0.728 0.599 1.331 1.326 1.331h5.857l-7.183-7.5zM25.902 30.673c0.731 0 1.326-0.594 1.326-1.325v-18.729h-6.6c-1.459 0-2.647-1.193-2.647-2.658v-6.633h-11.884c-0.731 0-1.326 0.597-1.326 1.331v26.688c0 0.731 0.595 1.326 1.326 1.326h19.804z" />
</symbol><symbol viewBox="0 0 25 32" id="file-2">
<title>file-2</title>
<path d="M4.703 4.556c-0.358 0-0.699 0.141-0.948 0.388s-0.386 0.578-0.386 0.921v20.959c0 0.343 0.137 0.675 0.386 0.921s0.59 0.389 0.948 0.389h15.092c0.358 0 0.699-0.141 0.948-0.389s0.386-0.578 0.386-0.921v-14.784h-4.353c-0.843 0-1.653-0.332-2.253-0.927s-0.94-1.406-0.94-2.254v-4.304h-8.88zM16.951 6.915l1.772 1.758h-1.772v-1.758zM1.382 2.553c0.883-0.876 2.078-1.365 3.32-1.365h10.564c0.444 0 0.871 0.176 1.186 0.488l7.546 7.485c0.319 0.316 0.498 0.747 0.498 1.196v16.468c0 1.245-0.499 2.437-1.382 3.313s-2.078 1.366-3.32 1.366h-15.092c-1.243 0-2.438-0.49-3.32-1.366s-1.382-2.068-1.382-3.313v-20.959c0-1.245 0.499-2.437 1.382-3.313z" />
</symbol><symbol viewBox="0 0 32 32" id="file-doc">
<title>file-doc</title>
<path d="M28.364 9.339c0.118 0.124 0.185 0.289 0.185 0.46v19.548c0 1.462-1.187 2.652-2.647 2.652h-19.804c-1.459 0-2.647-1.191-2.647-2.654v-26.688c0-1.466 1.187-2.658 2.647-2.658h13.041c0.18 0 0.351 0.073 0.476 0.203l8.75 9.136zM19.302 1.792l-0 6.168c0.007 0.728 0.599 1.331 1.326 1.331h5.857l-7.183-7.5zM25.902 30.673c0.731 0 1.326-0.594 1.326-1.325v-18.729h-6.6c-1.459 0-2.647-1.193-2.647-2.658v-6.633h-11.884c-0.731 0-1.326 0.597-1.326 1.331v26.688c0 0.731 0.595 1.326 1.326 1.326h19.804zM7.333 28.237v-7.583h2.005c0.885 0 1.59 0.281 2.115 0.844 0.528 0.563 0.797 1.333 0.807 2.313v1.229c0 0.997-0.264 1.779-0.792 2.349-0.524 0.566-1.248 0.849-2.172 0.849h-1.964zM8.865 21.929v5.037h0.458c0.51 0 0.87-0.134 1.078-0.401 0.208-0.271 0.318-0.736 0.328-1.396v-1.318c0-0.708-0.099-1.201-0.297-1.479-0.198-0.281-0.535-0.429-1.010-0.443h-0.557zM18.703 25.127c0 1.017-0.241 1.807-0.724 2.37-0.479 0.563-1.146 0.844-2 0.844-0.851 0-1.519-0.278-2.005-0.833-0.486-0.559-0.733-1.34-0.74-2.344v-1.297c0-1.042 0.241-1.854 0.724-2.438 0.483-0.587 1.153-0.88 2.010-0.88 0.844 0 1.509 0.288 1.995 0.865 0.486 0.573 0.733 1.378 0.74 2.417v1.297zM17.167 23.856c0-0.684-0.097-1.193-0.292-1.526s-0.497-0.5-0.906-0.5c-0.406 0-0.707 0.161-0.901 0.484-0.194 0.319-0.295 0.807-0.302 1.464v1.349c0 0.663 0.099 1.153 0.297 1.469 0.198 0.313 0.503 0.469 0.917 0.469 0.399 0 0.696-0.153 0.891-0.458 0.194-0.309 0.293-0.786 0.297-1.432v-1.318zM24.943 25.71c-0.038 0.865-0.281 1.519-0.729 1.964s-1.080 0.667-1.896 0.667c-0.858 0-1.516-0.281-1.974-0.844-0.455-0.566-0.682-1.371-0.682-2.417v-1.276c0-1.042 0.236-1.844 0.708-2.406 0.472-0.566 1.128-0.849 1.969-0.849 0.826 0 1.453 0.231 1.88 0.693 0.431 0.462 0.675 1.125 0.734 1.99h-1.536c-0.014-0.535-0.097-0.903-0.25-1.104-0.149-0.205-0.425-0.307-0.828-0.307-0.41 0-0.7 0.144-0.87 0.432-0.17 0.285-0.26 0.755-0.271 1.411v1.432c0 0.753 0.083 1.271 0.25 1.552 0.17 0.281 0.46 0.422 0.87 0.422 0.403 0 0.681-0.097 0.833-0.292 0.153-0.198 0.24-0.554 0.26-1.068h1.531z" />
</symbol><symbol viewBox="0 0 32 32" id="file-docx">
<title>file-docx</title>
<path d="M28.364 9.339c0.118 0.124 0.185 0.289 0.185 0.46v19.548c0 1.462-1.187 2.652-2.647 2.652h-19.804c-1.459 0-2.647-1.191-2.647-2.654v-26.688c0-1.466 1.187-2.658 2.647-2.658h13.041c0.18 0 0.351 0.073 0.476 0.203l8.75 9.136zM19.302 1.792l-0 6.168c0.007 0.728 0.599 1.331 1.326 1.331h5.857l-7.183-7.5zM25.902 30.673c0.731 0 1.326-0.594 1.326-1.325v-18.729h-6.6c-1.459 0-2.647-1.193-2.647-2.658v-6.633h-11.884c-0.731 0-1.326 0.597-1.326 1.331v26.688c0 0.731 0.595 1.326 1.326 1.326h19.804zM6.402 28.235v-6.245h1.651c0.729 0 1.31 0.232 1.741 0.695 0.435 0.463 0.656 1.098 0.665 1.904v1.012c0 0.821-0.217 1.465-0.652 1.934-0.432 0.466-1.028 0.699-1.789 0.699h-1.617zM7.663 23.041v4.148h0.377c0.42 0 0.716-0.11 0.888-0.33 0.172-0.223 0.262-0.606 0.27-1.15v-1.085c0-0.583-0.082-0.989-0.245-1.218-0.163-0.232-0.44-0.353-0.832-0.365h-0.459zM15.765 25.675c0 0.838-0.199 1.488-0.596 1.952-0.395 0.463-0.944 0.695-1.647 0.695-0.701 0-1.251-0.229-1.651-0.686-0.4-0.46-0.603-1.104-0.609-1.93v-1.068c0-0.858 0.199-1.527 0.596-2.007 0.398-0.483 0.949-0.725 1.656-0.725 0.695 0 1.242 0.237 1.643 0.712 0.4 0.472 0.603 1.135 0.609 1.99v1.068zM14.5 24.628c0-0.563-0.080-0.982-0.24-1.257s-0.409-0.412-0.746-0.412c-0.335 0-0.582 0.133-0.742 0.399-0.16 0.263-0.243 0.665-0.249 1.205v1.111c0 0.546 0.082 0.949 0.245 1.21 0.163 0.257 0.415 0.386 0.755 0.386 0.329 0 0.573-0.126 0.733-0.377 0.16-0.255 0.242-0.648 0.245-1.18v-1.085zM20.904 26.155c-0.031 0.712-0.232 1.251-0.6 1.617s-0.889 0.549-1.561 0.549c-0.706 0-1.248-0.232-1.626-0.695-0.375-0.466-0.562-1.129-0.562-1.99v-1.051c0-0.858 0.194-1.518 0.583-1.982 0.389-0.466 0.929-0.699 1.621-0.699 0.681 0 1.197 0.19 1.548 0.57 0.355 0.38 0.556 0.927 0.605 1.639h-1.265c-0.011-0.44-0.080-0.743-0.206-0.909-0.123-0.169-0.35-0.253-0.682-0.253-0.337 0-0.576 0.119-0.716 0.356-0.14 0.234-0.214 0.622-0.223 1.162v1.18c0 0.621 0.069 1.047 0.206 1.278 0.14 0.232 0.379 0.347 0.716 0.347 0.332 0 0.56-0.080 0.686-0.24 0.126-0.163 0.197-0.456 0.214-0.879h1.261zM23.636 24.135l0.841-2.145h1.445l-1.467 3.097 1.501 3.148h-1.463l-0.858-2.183-0.854 2.183h-1.463l1.501-3.148-1.471-3.097h1.445l0.841 2.145z" />
</symbol><symbol viewBox="0 0 32 32" id="file-gif">
<title>file-gif</title>
<path d="M28.364 9.339c0.118 0.124 0.185 0.289 0.185 0.46v19.548c0 1.462-1.187 2.652-2.647 2.652h-19.804c-1.459 0-2.647-1.191-2.647-2.654v-26.688c0-1.466 1.187-2.658 2.647-2.658h13.041c0.18 0 0.351 0.073 0.476 0.203l8.75 9.136zM19.302 1.792l-0 6.168c0.007 0.728 0.599 1.331 1.326 1.331h5.857l-7.183-7.5zM25.902 30.673c0.731 0 1.326-0.594 1.326-1.325v-18.729h-6.6c-1.459 0-2.647-1.193-2.647-2.658v-6.633h-11.884c-0.731 0-1.326 0.597-1.326 1.331v26.688c0 0.731 0.595 1.326 1.326 1.326h19.804zM14.668 27.377c-0.295 0.319-0.658 0.561-1.089 0.724-0.427 0.16-0.896 0.24-1.406 0.24-0.872 0-1.549-0.269-2.031-0.807-0.483-0.542-0.731-1.328-0.745-2.359v-1.365c0-1.045 0.227-1.849 0.682-2.411 0.458-0.566 1.125-0.849 2-0.849 0.823 0 1.443 0.203 1.859 0.609 0.42 0.406 0.663 1.043 0.729 1.911h-1.49c-0.042-0.483-0.142-0.811-0.302-0.984-0.16-0.177-0.41-0.266-0.75-0.266-0.413 0-0.714 0.151-0.901 0.453s-0.285 0.783-0.292 1.443v1.375c0 0.691 0.102 1.194 0.307 1.51 0.208 0.313 0.549 0.469 1.021 0.469 0.302 0 0.547-0.061 0.734-0.182l0.135-0.094v-1.391h-1.073v-1.156h2.609v3.13zM17.35 28.237h-1.531v-7.583h1.531v7.583zM22.548 25.143h-2.38v3.094h-1.531v-7.583h4.198v1.276h-2.667v1.943h2.38v1.271z" />
</symbol><symbol viewBox="0 0 32 32" id="file-jpg">
<title>file-jpg</title>
<path d="M28.364 9.339c0.118 0.124 0.185 0.289 0.185 0.46v19.548c0 1.462-1.187 2.652-2.647 2.652h-19.804c-1.459 0-2.647-1.191-2.647-2.654v-26.688c0-1.466 1.187-2.658 2.647-2.658h13.041c0.18 0 0.351 0.073 0.476 0.203l8.75 9.136zM19.302 1.792l-0 6.168c0.007 0.728 0.599 1.331 1.326 1.331h5.857l-7.183-7.5zM25.902 30.673c0.731 0 1.326-0.594 1.326-1.325v-18.729h-6.6c-1.459 0-2.647-1.193-2.647-2.658v-6.633h-11.884c-0.731 0-1.326 0.597-1.326 1.331v26.688c0 0.731 0.595 1.326 1.326 1.326h19.804zM10.335 20.653h1.531v5.25c0 0.736-0.205 1.326-0.615 1.771s-0.937 0.667-1.583 0.667c-0.694 0-1.234-0.207-1.62-0.62s-0.578-0.988-0.578-1.724h1.536c0 0.715 0.22 1.073 0.661 1.073 0.444 0 0.667-0.413 0.667-1.24v-5.177zM14.601 25.57v2.667h-1.531v-7.583h2.583c0.75 0 1.347 0.233 1.792 0.698 0.448 0.465 0.672 1.069 0.672 1.813s-0.221 1.33-0.661 1.76-1.052 0.646-1.833 0.646h-1.021zM14.601 24.294h1.052c0.292 0 0.517-0.096 0.677-0.287s0.24-0.469 0.24-0.833c0-0.378-0.082-0.679-0.245-0.901-0.163-0.226-0.382-0.34-0.656-0.344h-1.068v2.365zM24.299 27.377c-0.295 0.319-0.658 0.561-1.089 0.724-0.427 0.16-0.896 0.24-1.406 0.24-0.872 0-1.549-0.269-2.031-0.807-0.483-0.542-0.731-1.328-0.745-2.359v-1.365c0-1.045 0.227-1.849 0.682-2.411 0.458-0.566 1.125-0.849 2-0.849 0.823 0 1.443 0.203 1.859 0.609 0.42 0.406 0.663 1.043 0.729 1.911h-1.49c-0.042-0.483-0.142-0.811-0.302-0.984-0.16-0.177-0.41-0.266-0.75-0.266-0.413 0-0.714 0.151-0.901 0.453s-0.285 0.783-0.292 1.443v1.375c0 0.691 0.102 1.194 0.307 1.51 0.208 0.313 0.549 0.469 1.021 0.469 0.302 0 0.547-0.061 0.734-0.182l0.135-0.094v-1.391h-1.073v-1.156h2.609v3.13z" />
</symbol><symbol viewBox="0 0 32 32" id="file-mp3">
<title>file-mp3</title>
<path d="M28.364 9.339c0.118 0.124 0.185 0.289 0.185 0.46v19.548c0 1.462-1.187 2.652-2.647 2.652h-19.804c-1.459 0-2.647-1.191-2.647-2.654v-26.688c0-1.466 1.187-2.658 2.647-2.658h13.041c0.18 0 0.351 0.073 0.476 0.203l8.75 9.136zM19.302 1.792l-0 6.168c0.007 0.728 0.599 1.331 1.326 1.331h5.857l-7.183-7.5zM25.902 30.673c0.731 0 1.326-0.594 1.326-1.325v-18.729h-6.6c-1.459 0-2.647-1.193-2.647-2.658v-6.633h-11.884c-0.731 0-1.326 0.597-1.326 1.331v26.688c0 0.731 0.595 1.326 1.326 1.326h19.804zM8.828 20.653l1.432 5.484 1.427-5.484h2v7.583h-1.536v-2.052l0.141-3.161-1.516 5.214h-1.042l-1.516-5.214 0.141 3.161v2.052h-1.531v-7.583h2zM16.453 25.57v2.667h-1.531v-7.583h2.583c0.75 0 1.347 0.233 1.792 0.698 0.448 0.465 0.672 1.069 0.672 1.813s-0.221 1.33-0.661 1.76-1.052 0.646-1.833 0.646h-1.021zM16.453 24.294h1.052c0.292 0 0.517-0.096 0.677-0.287s0.24-0.469 0.24-0.833c0-0.378-0.082-0.679-0.245-0.901-0.163-0.226-0.382-0.34-0.656-0.344h-1.068v2.365zM22.193 23.773h0.714c0.271 0 0.469-0.094 0.594-0.281 0.128-0.191 0.193-0.444 0.193-0.76 0-0.302-0.066-0.536-0.198-0.703-0.128-0.17-0.302-0.255-0.521-0.255-0.205 0-0.373 0.080-0.505 0.24-0.128 0.16-0.193 0.361-0.193 0.604h-1.474c0-0.396 0.090-0.75 0.271-1.062 0.184-0.316 0.439-0.563 0.766-0.74 0.33-0.177 0.694-0.266 1.094-0.266 0.698 0 1.245 0.193 1.641 0.578s0.594 0.913 0.594 1.583c0 0.344-0.090 0.663-0.271 0.958-0.177 0.292-0.411 0.516-0.703 0.672 0.358 0.153 0.623 0.382 0.797 0.688 0.177 0.306 0.266 0.667 0.266 1.083 0 0.674-0.215 1.214-0.646 1.62-0.427 0.406-0.99 0.609-1.688 0.609-0.649 0-1.177-0.2-1.583-0.599-0.403-0.403-0.604-0.931-0.604-1.583h1.474c0 0.271 0.071 0.498 0.214 0.682s0.323 0.276 0.542 0.276c0.253 0 0.453-0.094 0.599-0.281 0.149-0.187 0.224-0.437 0.224-0.75 0-0.746-0.29-1.122-0.87-1.125h-0.724v-1.188z" />
</symbol><symbol viewBox="0 0 32 32" id="file-mp4">
<title>file-mp4</title>
<path d="M28.364 9.339c0.118 0.124 0.185 0.289 0.185 0.46v19.548c0 1.462-1.187 2.652-2.647 2.652h-19.804c-1.459 0-2.647-1.191-2.647-2.654v-26.688c0-1.466 1.187-2.658 2.647-2.658h13.041c0.18 0 0.351 0.073 0.476 0.203l8.75 9.136zM19.302 1.792l-0 6.168c0.007 0.728 0.599 1.331 1.326 1.331h5.857l-7.183-7.5zM25.902 30.673c0.731 0 1.326-0.594 1.326-1.325v-18.729h-6.6c-1.459 0-2.647-1.193-2.647-2.658v-6.633h-11.884c-0.731 0-1.326 0.597-1.326 1.331v26.688c0 0.731 0.595 1.326 1.326 1.326h19.804zM8.828 20.652l1.432 5.484 1.427-5.484h2v7.583h-1.536v-2.052l0.141-3.161-1.516 5.214h-1.042l-1.516-5.214 0.141 3.161v2.052h-1.531v-7.583h2zM16.453 25.569v2.667h-1.531v-7.583h2.583c0.75 0 1.347 0.233 1.792 0.698 0.448 0.465 0.672 1.069 0.672 1.812s-0.221 1.33-0.661 1.76-1.052 0.646-1.833 0.646h-1.021zM16.453 24.293h1.052c0.292 0 0.517-0.096 0.677-0.286s0.24-0.469 0.24-0.833c0-0.378-0.082-0.679-0.245-0.901-0.163-0.226-0.382-0.34-0.656-0.344h-1.068v2.365zM24.766 25.371h0.646v1.224h-0.646v1.641h-1.474v-1.641h-2.51l-0.068-0.953 2.573-4.99h1.479v4.719zM22.146 25.371h1.146v-2.536l-0.031 0.057-1.115 2.479z" />
</symbol><symbol viewBox="0 0 32 32" id="file-pdf">
<title>file-pdf</title>
<path d="M28.364 9.339c0.118 0.124 0.185 0.289 0.185 0.46v19.548c0 1.462-1.187 2.652-2.647 2.652h-19.804c-1.459 0-2.647-1.191-2.647-2.654v-26.688c0-1.466 1.187-2.658 2.647-2.658h13.041c0.18 0 0.351 0.073 0.476 0.203l8.75 9.136zM19.302 1.792l-0 6.168c0.007 0.728 0.599 1.331 1.326 1.331h5.857l-7.183-7.5zM25.902 30.673c0.731 0 1.326-0.594 1.326-1.325v-18.729h-6.6c-1.459 0-2.647-1.193-2.647-2.658v-6.633h-11.884c-0.731 0-1.326 0.597-1.326 1.331v26.688c0 0.731 0.595 1.326 1.326 1.326h19.804zM9.551 25.569v2.667h-1.531v-7.583h2.583c0.75 0 1.347 0.233 1.792 0.698 0.448 0.465 0.672 1.069 0.672 1.812s-0.22 1.33-0.661 1.76-1.052 0.646-1.833 0.646h-1.021zM9.551 24.293h1.052c0.292 0 0.517-0.096 0.677-0.286s0.24-0.469 0.24-0.833c0-0.378-0.082-0.679-0.245-0.901-0.163-0.226-0.382-0.34-0.656-0.344h-1.068v2.365zM14.093 28.235v-7.583h2.005c0.885 0 1.59 0.281 2.115 0.844 0.528 0.563 0.797 1.333 0.807 2.312v1.229c0 0.997-0.264 1.779-0.792 2.349-0.524 0.566-1.248 0.849-2.172 0.849h-1.964zM15.624 21.928v5.036h0.458c0.51 0 0.87-0.134 1.078-0.401 0.208-0.271 0.318-0.736 0.328-1.396v-1.318c0-0.708-0.099-1.201-0.297-1.479-0.198-0.281-0.535-0.429-1.010-0.443h-0.557zM24.035 25.142h-2.38v3.094h-1.531v-7.583h4.198v1.276h-2.667v1.943h2.38v1.271zM20.020 14.582c-0.286 0.082-0.705 0.091-1.155 0.028-0.483-0.068-0.975-0.212-1.459-0.423 0.863-0.122 1.533-0.085 2.105 0.113 0.136 0.047 0.359 0.172 0.509 0.283zM15.204 13.811c-0.035 0.009-0.070 0.018-0.104 0.027-0.232 0.062-0.458 0.121-0.676 0.175l-0.294 0.072c-0.591 0.145-1.195 0.294-1.791 0.471 0.227-0.532 0.437-1.069 0.643-1.595 0.153-0.389 0.309-0.787 0.47-1.179 0.082 0.131 0.167 0.263 0.256 0.395 0.405 0.599 0.913 1.154 1.495 1.634zM13.702 7.816c0.038 0.656-0.107 1.287-0.321 1.893-0.263-0.749-0.386-1.575-0.057-2.243 0.084-0.171 0.153-0.263 0.198-0.31 0.069 0.104 0.16 0.336 0.179 0.661zM10.619 16.126c-0.148 0.257-0.299 0.498-0.453 0.725-0.373 0.547-0.983 1.132-1.296 1.132-0.031 0-0.068-0.005-0.123-0.061-0.035-0.036-0.041-0.062-0.039-0.096 0.011-0.201 0.284-0.559 0.681-0.891 0.36-0.301 0.767-0.569 1.23-0.809zM21.018 14.61c-0.048-0.67-1.207-1.099-1.218-1.103-0.448-0.154-0.935-0.23-1.488-0.23-0.592 0-1.23 0.083-2.050 0.27-0.729-0.503-1.36-1.133-1.83-1.83-0.208-0.308-0.395-0.615-0.558-0.916 0.398-0.925 0.756-1.92 0.691-3.034-0.053-0.893-0.467-1.493-1.030-1.493-0.386 0-0.719 0.278-0.989 0.828-0.482 0.979-0.356 2.233 0.377 3.728-0.264 0.603-0.509 1.227-0.746 1.832-0.295 0.752-0.599 1.528-0.942 2.266-0.961 0.37-1.751 0.819-2.409 1.369-0.431 0.36-0.951 0.911-0.981 1.485-0.014 0.271 0.081 0.519 0.275 0.718 0.206 0.211 0.465 0.322 0.749 0.323 0.94 0 1.845-1.256 2.016-1.508 0.345-0.506 0.669-1.071 0.985-1.723 0.798-0.28 1.648-0.49 2.472-0.692l0.295-0.073c0.222-0.055 0.452-0.115 0.689-0.178 0.25-0.066 0.508-0.134 0.77-0.199 0.846 0.523 1.756 0.865 2.644 0.99 0.748 0.106 1.412 0.044 1.861-0.183 0.405-0.205 0.427-0.521 0.417-0.647z" />
</symbol><symbol viewBox="0 0 32 32" id="file-png">
<title>file-png</title>
<path d="M28.364 9.339c0.118 0.124 0.185 0.289 0.185 0.46v19.548c0 1.462-1.187 2.652-2.647 2.652h-19.804c-1.459 0-2.647-1.191-2.647-2.654v-26.688c0-1.466 1.187-2.658 2.647-2.658h13.041c0.18 0 0.351 0.073 0.476 0.203l8.75 9.136zM19.302 1.792l-0 6.168c0.007 0.728 0.599 1.331 1.326 1.331h5.857l-7.183-7.5zM25.902 30.673c0.731 0 1.326-0.594 1.326-1.325v-18.729h-6.6c-1.459 0-2.647-1.193-2.647-2.658v-6.633h-11.884c-0.731 0-1.326 0.597-1.326 1.331v26.688c0 0.731 0.595 1.326 1.326 1.326h19.804zM8.718 25.57v2.667h-1.531v-7.583h2.583c0.75 0 1.347 0.233 1.792 0.698 0.448 0.465 0.672 1.069 0.672 1.813s-0.22 1.33-0.661 1.76-1.052 0.646-1.833 0.646h-1.021zM8.718 24.294h1.052c0.292 0 0.517-0.096 0.677-0.287s0.24-0.469 0.24-0.833c0-0.378-0.082-0.679-0.245-0.901-0.163-0.226-0.382-0.34-0.656-0.344h-1.068v2.365zM18.561 28.237h-1.531l-2.24-4.974v4.974h-1.531v-7.583h1.531l2.245 4.979v-4.979h1.526v7.583zM24.947 27.377c-0.295 0.319-0.658 0.561-1.089 0.724-0.427 0.16-0.896 0.24-1.406 0.24-0.872 0-1.549-0.269-2.031-0.807-0.483-0.542-0.731-1.328-0.745-2.359v-1.365c0-1.045 0.227-1.849 0.682-2.411 0.458-0.566 1.125-0.849 2-0.849 0.823 0 1.443 0.203 1.859 0.609 0.42 0.406 0.663 1.043 0.729 1.911h-1.49c-0.042-0.483-0.142-0.811-0.302-0.984-0.16-0.177-0.41-0.266-0.75-0.266-0.413 0-0.714 0.151-0.901 0.453s-0.285 0.783-0.292 1.443v1.375c0 0.691 0.102 1.194 0.307 1.51 0.208 0.313 0.549 0.469 1.021 0.469 0.302 0 0.547-0.061 0.734-0.182l0.135-0.094v-1.391h-1.073v-1.156h2.609v3.13z" />
</symbol><symbol viewBox="0 0 32 32" id="file-ppt">
<title>file-ppt</title>
<path d="M28.364 9.339c0.118 0.124 0.185 0.289 0.185 0.46v19.548c0 1.462-1.187 2.652-2.647 2.652h-19.804c-1.459 0-2.647-1.191-2.647-2.654v-26.688c0-1.466 1.187-2.658 2.647-2.658h13.041c0.18 0 0.351 0.073 0.476 0.203l8.75 9.136zM19.302 1.792l-0 6.168c0.007 0.728 0.599 1.331 1.326 1.331h5.857l-7.183-7.5zM25.902 30.673c0.731 0 1.326-0.594 1.326-1.325v-18.729h-6.6c-1.459 0-2.647-1.193-2.647-2.658v-6.633h-11.884c-0.731 0-1.326 0.597-1.326 1.331v26.688c0 0.731 0.595 1.326 1.326 1.326h19.804zM9.173 25.569v2.667h-1.531v-7.583h2.583c0.75 0 1.347 0.233 1.792 0.698 0.448 0.465 0.672 1.069 0.672 1.812s-0.22 1.33-0.661 1.76-1.052 0.646-1.833 0.646h-1.021zM9.173 24.293h1.052c0.292 0 0.517-0.096 0.677-0.286s0.24-0.469 0.24-0.833c0-0.378-0.082-0.679-0.245-0.901-0.163-0.226-0.382-0.34-0.656-0.344h-1.068v2.365zM15.246 25.569v2.667h-1.531v-7.583h2.583c0.75 0 1.347 0.233 1.792 0.698 0.448 0.465 0.672 1.069 0.672 1.812s-0.221 1.33-0.661 1.76-1.052 0.646-1.833 0.646h-1.021zM15.246 24.293h1.052c0.292 0 0.517-0.096 0.677-0.286s0.24-0.469 0.24-0.833c0-0.378-0.082-0.679-0.245-0.901-0.163-0.226-0.382-0.34-0.656-0.344h-1.068v2.365zM24.699 21.928h-1.875v6.307h-1.537v-6.307h-1.844v-1.276h5.255v1.276z" />
</symbol><symbol viewBox="0 0 32 32" id="file-rar">
<title>file-rar</title>
<path d="M28.364 9.339c0.118 0.124 0.185 0.289 0.185 0.46v19.548c0 1.462-1.187 2.652-2.647 2.652h-19.804c-1.459 0-2.647-1.191-2.647-2.654v-26.688c0-1.466 1.187-2.658 2.647-2.658h13.041c0.18 0 0.351 0.073 0.476 0.203l8.75 9.136zM19.302 1.792l-0 6.168c0.007 0.728 0.599 1.331 1.326 1.331h5.857l-7.183-7.5zM25.902 30.673c0.731 0 1.326-0.594 1.326-1.325v-18.729h-6.6c-1.459 0-2.647-1.193-2.647-2.658v-6.633h-11.884c-0.731 0-1.326 0.597-1.326 1.331v26.688c0 0.731 0.595 1.326 1.326 1.326h19.804zM9.811 25.464h-0.76v2.771h-1.531v-7.583h2.443c0.767 0 1.359 0.2 1.776 0.599 0.42 0.396 0.63 0.96 0.63 1.693 0 1.007-0.366 1.712-1.099 2.115l1.328 3.104v0.073h-1.646l-1.141-2.771zM9.051 24.188h0.87c0.306 0 0.535-0.101 0.688-0.302 0.153-0.205 0.229-0.477 0.229-0.818 0-0.76-0.297-1.141-0.891-1.141h-0.896v2.26zM17.040 26.683h-2.089l-0.406 1.552h-1.62l2.37-7.583h1.401l2.385 7.583h-1.635l-0.406-1.552zM15.285 25.407h1.417l-0.708-2.703-0.708 2.703zM22.093 25.464h-0.76v2.771h-1.531v-7.583h2.443c0.767 0 1.359 0.2 1.776 0.599 0.42 0.396 0.63 0.96 0.63 1.693 0 1.007-0.366 1.712-1.099 2.115l1.328 3.104v0.073h-1.646l-1.141-2.771zM21.332 24.188h0.87c0.306 0 0.535-0.101 0.688-0.302 0.153-0.205 0.229-0.477 0.229-0.818 0-0.76-0.297-1.141-0.891-1.141h-0.896v2.26z" />
</symbol><symbol viewBox="0 0 32 32" id="file-txt">
<title>file-txt</title>
<path d="M28.364 9.339c0.118 0.124 0.185 0.289 0.185 0.46v19.548c0 1.462-1.187 2.652-2.647 2.652h-19.804c-1.459 0-2.647-1.191-2.647-2.654v-26.688c0-1.466 1.187-2.658 2.647-2.658h13.041c0.18 0 0.351 0.073 0.476 0.203l8.75 9.136zM19.302 1.792l-0 6.168c0.007 0.728 0.599 1.331 1.326 1.331h5.857l-7.183-7.5zM25.902 30.673c0.731 0 1.326-0.594 1.326-1.325v-18.729h-6.6c-1.459 0-2.647-1.193-2.647-2.658v-6.633h-11.884c-0.731 0-1.326 0.597-1.326 1.331v26.688c0 0.731 0.595 1.326 1.326 1.326h19.804zM12.745 21.928h-1.875v6.307h-1.536v-6.307h-1.844v-1.276h5.255v1.276zM16.001 23.256l1.021-2.604h1.755l-1.781 3.76 1.823 3.823h-1.776l-1.042-2.651-1.037 2.651h-1.776l1.823-3.823-1.786-3.76h1.755l1.021 2.604zM24.506 21.928h-1.875v6.307h-1.537v-6.307h-1.844v-1.276h5.255v1.276z" />
</symbol><symbol viewBox="0 0 32 32" id="file-xls">
<title>file-xls</title>
<path d="M28.364 9.339c0.118 0.124 0.185 0.289 0.185 0.46v19.548c0 1.462-1.187 2.652-2.647 2.652h-19.804c-1.459 0-2.647-1.191-2.647-2.654v-26.688c0-1.466 1.187-2.658 2.647-2.658h13.041c0.18 0 0.351 0.073 0.476 0.203l8.75 9.136zM19.302 1.792l-0 6.168c0.007 0.728 0.599 1.331 1.326 1.331h5.857l-7.183-7.5zM25.902 30.673c0.731 0 1.326-0.594 1.326-1.325v-18.729h-6.6c-1.459 0-2.647-1.193-2.647-2.658v-6.633h-11.884c-0.731 0-1.326 0.597-1.326 1.331v26.688c0 0.731 0.595 1.326 1.326 1.326h19.804zM10.567 23.257l1.021-2.604h1.755l-1.781 3.76 1.823 3.823h-1.776l-1.042-2.651-1.036 2.651h-1.776l1.823-3.823-1.787-3.76h1.755l1.021 2.604zM15.692 26.966h2.687v1.271h-4.219v-7.583h1.531v6.313zM22.468 26.247c0-0.309-0.080-0.542-0.24-0.698-0.156-0.16-0.443-0.325-0.859-0.495-0.76-0.288-1.307-0.625-1.641-1.010-0.333-0.389-0.5-0.847-0.5-1.375 0-0.639 0.226-1.151 0.677-1.536 0.455-0.389 1.031-0.583 1.729-0.583 0.465 0 0.88 0.099 1.245 0.297 0.365 0.194 0.644 0.471 0.839 0.828 0.198 0.358 0.297 0.764 0.297 1.219h-1.526c0-0.354-0.076-0.623-0.229-0.807-0.149-0.187-0.366-0.281-0.651-0.281-0.267 0-0.476 0.080-0.625 0.24-0.149 0.156-0.224 0.368-0.224 0.635 0 0.208 0.083 0.398 0.25 0.568 0.167 0.167 0.462 0.34 0.885 0.521 0.74 0.267 1.276 0.595 1.609 0.984 0.337 0.389 0.505 0.884 0.505 1.484 0 0.66-0.21 1.175-0.63 1.547s-0.991 0.557-1.713 0.557c-0.49 0-0.936-0.101-1.339-0.302s-0.719-0.49-0.948-0.865c-0.226-0.375-0.338-0.818-0.338-1.328h1.536c0 0.438 0.085 0.755 0.255 0.953s0.448 0.297 0.833 0.297c0.535 0 0.802-0.283 0.802-0.849z" />
</symbol><symbol viewBox="0 0 32 32" id="file-xlsx">
<title>file-xlsx</title>
<path d="M28.364 9.339c0.118 0.124 0.185 0.289 0.185 0.46v19.548c0 1.462-1.187 2.652-2.647 2.652h-19.804c-1.459 0-2.647-1.191-2.647-2.654v-26.688c0-1.466 1.187-2.658 2.647-2.658h13.041c0.18 0 0.351 0.073 0.476 0.203l8.75 9.136zM19.302 1.792l-0 6.168c0.007 0.728 0.599 1.331 1.326 1.331h5.857l-7.183-7.5zM25.902 30.673c0.731 0 1.326-0.594 1.326-1.325v-18.729h-6.6c-1.459 0-2.647-1.193-2.647-2.658v-6.633h-11.884c-0.731 0-1.326 0.597-1.326 1.331v26.688c0 0.731 0.595 1.326 1.326 1.326h19.804zM9.071 24.135l0.841-2.145h1.445l-1.467 3.097 1.501 3.148h-1.463l-0.858-2.183-0.854 2.183h-1.463l1.501-3.148-1.471-3.097h1.445l0.841 2.145zM13.292 27.189h2.213v1.047h-3.474v-6.245h1.261v5.198zM18.872 26.597c0-0.255-0.066-0.446-0.197-0.575-0.129-0.132-0.365-0.267-0.708-0.408-0.626-0.237-1.077-0.515-1.351-0.832-0.274-0.32-0.412-0.698-0.412-1.132 0-0.526 0.186-0.948 0.558-1.265 0.375-0.32 0.849-0.48 1.424-0.48 0.383 0 0.725 0.081 1.025 0.244 0.3 0.16 0.53 0.387 0.691 0.682 0.163 0.295 0.244 0.629 0.244 1.004h-1.257c0-0.292-0.063-0.513-0.189-0.665-0.123-0.154-0.302-0.232-0.536-0.232-0.22 0-0.392 0.066-0.515 0.197-0.123 0.129-0.184 0.303-0.184 0.523 0 0.172 0.069 0.327 0.206 0.468 0.137 0.137 0.38 0.28 0.729 0.429 0.609 0.22 1.051 0.49 1.325 0.811 0.277 0.32 0.416 0.728 0.416 1.222 0 0.543-0.173 0.968-0.519 1.274s-0.816 0.459-1.411 0.459c-0.403 0-0.771-0.083-1.102-0.249s-0.592-0.403-0.781-0.712c-0.186-0.309-0.279-0.673-0.279-1.094h1.265c0 0.36 0.070 0.622 0.21 0.785s0.369 0.244 0.686 0.244c0.44 0 0.661-0.233 0.661-0.699zM22.934 24.135l0.841-2.145h1.445l-1.467 3.097 1.501 3.148h-1.463l-0.858-2.183-0.854 2.183h-1.463l1.501-3.148-1.471-3.097h1.445l0.841 2.145z" />
</symbol><symbol viewBox="0 0 32 32" id="file-zip">
<title>file-zip</title>
<path d="M28.364 9.339c0.118 0.124 0.185 0.289 0.185 0.46v19.548c0 1.462-1.187 2.652-2.647 2.652h-19.804c-1.459 0-2.647-1.191-2.647-2.654v-26.688c0-1.466 1.187-2.658 2.647-2.658h13.041c0.18 0 0.351 0.073 0.476 0.203l8.75 9.136zM19.302 1.792l-0 6.168c0.007 0.728 0.599 1.331 1.326 1.331h5.857l-7.183-7.5zM25.902 30.673c0.731 0 1.326-0.594 1.326-1.325v-18.729h-6.6c-1.459 0-2.647-1.193-2.647-2.658v-6.633h-11.884c-0.731 0-1.326 0.597-1.326 1.331v26.688c0 0.731 0.595 1.326 1.326 1.326h19.804zM10.892 26.964h3.125v1.271h-4.917v-0.922l3.094-5.385h-3.125v-1.276h4.891v0.901l-3.068 5.411zM16.558 28.235h-1.531v-7.583h1.531v7.583zM19.376 25.569v2.667h-1.531v-7.583h2.583c0.75 0 1.347 0.233 1.792 0.698 0.448 0.465 0.672 1.069 0.672 1.812s-0.221 1.33-0.661 1.76-1.052 0.646-1.833 0.646h-1.021zM19.376 24.293h1.052c0.292 0 0.517-0.096 0.677-0.286s0.24-0.469 0.24-0.833c0-0.378-0.082-0.679-0.245-0.901-0.163-0.226-0.382-0.34-0.656-0.344h-1.068v2.365z" />
</symbol><symbol viewBox="0 0 25 32" id="form">
<title>form</title>
<path d="M6.3 3.611c0.557-1.79 2.202-3.109 4.18-3.109h3.049c1.978 0 3.624 1.319 4.18 3.109h1.918c1.171 0 2.289 0.475 3.108 1.311s1.274 1.963 1.274 3.133v18.667c0 1.17-0.455 2.298-1.274 3.133s-1.937 1.311-3.108 1.311h-15.246c-1.171 0-2.289-0.475-3.108-1.311s-1.274-1.963-1.274-3.133v-18.667c0-1.17 0.455-2.298 1.274-3.133s1.937-1.311 3.108-1.311h1.918zM8.765 4.924c0 0.007 0 0.014 0 0.021s-0 0.015-0 0.023c0.011 0.997 0.799 1.757 1.716 1.757h3.049c0.923 0 1.716-0.771 1.716-1.778s-0.793-1.778-1.716-1.778h-3.049c-0.915 0-1.704 0.759-1.716 1.755zM17.712 6.278c-0.555 1.792-2.202 3.114-4.182 3.114h-3.049c-1.98 0-3.627-1.321-4.182-3.114h-1.916c-0.446 0-0.88 0.181-1.204 0.511s-0.512 0.787-0.512 1.267v18.667c0 0.48 0.187 0.935 0.512 1.267s0.758 0.511 1.204 0.511h15.246c0.446 0 0.88-0.181 1.204-0.511s0.512-0.787 0.512-1.267v-18.667c0-0.48-0.187-0.935-0.512-1.267s-0.758-0.511-1.204-0.511h-1.917zM6.098 15.836c0 0.736 0.597 1.333 1.333 1.333h0.009c0.736 0 1.333-0.597 1.333-1.333s-0.597-1.333-1.333-1.333h-0.009c-0.736 0-1.333 0.597-1.333 1.333zM12.196 15.836c0 0.736 0.597 1.333 1.333 1.333h3.049c0.736 0 1.333-0.597 1.333-1.333s-0.597-1.333-1.333-1.333h-3.049c-0.736 0-1.333 0.597-1.333 1.333zM6.098 22.061c0 0.736 0.597 1.333 1.333 1.333h0.009c0.736 0 1.333-0.597 1.333-1.333s-0.597-1.333-1.333-1.333h-0.009c-0.736 0-1.333 0.597-1.333 1.333zM12.196 22.061c0 0.736 0.597 1.333 1.333 1.333h3.049c0.736 0 1.333-0.597 1.333-1.333s-0.597-1.333-1.333-1.333h-3.049c-0.736 0-1.333 0.597-1.333 1.333z" />
</symbol><symbol viewBox="0 0 36 32" id="heart">
<title>heart</title>
<path d="M25.64 4.299c-1.652-0.288-3.363 0.285-4.597 1.611l-1.974 2.121c-0.336 0.361-0.808 0.566-1.301 0.566s-0.965-0.205-1.301-0.566l-1.974-2.12c-1.234-1.325-2.946-1.899-4.598-1.611-1.659 0.289-3.146 1.43-3.946 3.148-1.515 3.255-0.101 7.13 3.005 11.105 2.657 3.401 6.211 6.415 8.82 8.366 2.668-1.972 6.236-4.971 8.884-8.358 3.077-3.936 4.469-7.798 2.927-11.114-0.799-1.718-2.286-2.858-3.945-3.148zM18.441 3.487c2.018-2.168 4.923-3.194 7.81-2.691 2.881 0.503 5.301 2.45 6.557 5.151 2.445 5.256-0.103 10.65-3.349 14.803-3.318 4.244-7.833 7.822-10.668 9.818-0.616 0.434-1.439 0.432-2.053-0.005-2.757-1.959-7.257-5.562-10.586-9.822-3.248-4.157-5.855-9.577-3.427-14.794 1.257-2.701 3.678-4.648 6.558-5.151 2.887-0.504 5.793 0.523 7.811 2.69l0.673 0.723 0.673-0.723z" />
</symbol><symbol viewBox="0 0 32 32" id="info">
<title>info</title>
<path d="M16 0c4.243 0 8.314 1.686 11.314 4.686s4.686 7.070 4.686 11.314c0 8.836-7.163 16-16 16s-16-7.163-16-16c0-8.837 7.163-16 16-16zM15.9 5.28c-1.104 0-2 0.895-2 2s0.896 2 2 2c1.105 0 2-0.895 2-2s-0.895-2-2-2zM11.1 25.13c0 0.773 0.627 1.4 1.4 1.4h7c0.772 0 1.399-0.627 1.399-1.4s-0.627-1.4-1.399-1.4h-2.101v-12h-4.399c-0.773 0-1.4 0.627-1.4 1.4s0.627 1.4 1.4 1.4h1.6v9.2h-2.1c-0.773 0-1.4 0.627-1.4 1.4z" />
</symbol><symbol viewBox="0 0 32 32" id="lock">
<title>lock</title>
<path d="M24.091 8.455c0.090-4.565-3.526-8.345-8.091-8.455-4.565 0.111-8.181 3.89-8.091 8.455v4.329h-3.034v17.193c0 1.117 0.906 2.023 2.023 2.023h18.205c1.117 0 2.023-0.906 2.023-2.023v-17.193h-3.034v-4.329zM16 2.023c3.448 0.11 6.159 2.984 6.068 6.432v4.329h-12.137v-4.329c-0.091-3.448 2.621-6.322 6.068-6.432zM6.898 29.977v-15.171h18.205v15.171h-18.205zM13.739 20.307c0.261-1.090 1.231-1.861 2.352-1.87 1.164 0.002 2.164 0.826 2.388 1.968s-0.391 2.283-1.468 2.724v2.802h-2.023v-2.893c-0.995-0.515-1.511-1.643-1.25-2.732z" />
</symbol><symbol viewBox="0 0 28 32" id="map_pin">
<title>map_pin</title>
<path d="M15.532 4.228c-0.683-0.108-1.383-0.147-2.078-0.114-1.844 0.088-3.633 0.675-5.173 1.704-1.674 1.119-2.979 2.709-3.75 4.569s-0.972 3.908-0.579 5.883c0.393 1.975 1.362 3.789 2.786 5.213 0 0-0-0 0 0l6.173 6.171c0.273 0.272 0.643 0.425 1.028 0.425s0.755-0.153 1.028-0.425l6.171-6.171c0 0 0 0 0 0 1.424-1.424 2.394-3.238 2.786-5.213s0.191-4.022-0.579-5.883c-0.771-1.86-2.076-3.451-3.75-4.569-1.229-0.821-2.615-1.361-4.062-1.59zM13.316 1.208c0.893-0.042 1.793 0.007 2.672 0.147 1.86 0.295 3.643 0.989 5.223 2.045 2.153 1.438 3.831 3.483 4.822 5.875s1.25 5.024 0.745 7.564c-0.505 2.539-1.752 4.872-3.582 6.703l-6.172 6.172c-0.818 0.817-1.928 1.277-3.084 1.277s-2.266-0.459-3.084-1.276l-6.173-6.172c-1.831-1.831-3.078-4.164-3.583-6.703s-0.246-5.171 0.745-7.564c0.991-2.392 2.669-4.436 4.822-5.875 1.98-1.323 4.28-2.079 6.651-2.191zM14.558 11.442c-0.424-0.092-0.907-0.084-1.325 0.020-1.266 0.315-2.204 1.462-2.204 2.823 0 1.607 1.302 2.909 2.909 2.909s2.909-1.303 2.909-2.909c0-1.393-0.98-2.56-2.289-2.843zM12.53 8.639c0.85-0.211 1.784-0.226 2.643-0.040 2.62 0.567 4.583 2.896 4.583 5.686 0 3.213-2.605 5.818-5.818 5.818s-5.818-2.605-5.818-5.818c0-2.729 1.878-5.017 4.411-5.646z" />
</symbol><symbol viewBox="0 0 32 32" id="phone">
<title>phone</title>
<path d="M5.697 4.77c-0.394 0-0.772 0.157-1.051 0.435-0.269 0.269-0.424 0.63-0.435 1.008 0.364 5.75 2.813 11.172 6.888 15.247s9.496 6.524 15.247 6.888c0.379-0.011 0.74-0.166 1.009-0.435 0.279-0.279 0.435-0.657 0.435-1.051v-5.2l-5.535-2.214-1.64 2.733c-0.451 0.752-1.403 1.032-2.189 0.644-3.775-1.862-6.83-4.917-8.691-8.691-0.388-0.786-0.108-1.738 0.644-2.189l2.733-1.64-2.214-5.535h-5.2zM2.264 2.823c0.91-0.91 2.145-1.422 3.433-1.422h6.341c0.689 0 1.308 0.419 1.564 1.059l3.17 7.926c0.307 0.768 0.012 1.644-0.697 2.070l-2.567 1.54c1.276 2.051 3.006 3.781 5.057 5.057l1.54-2.568c0.425-0.709 1.302-1.004 2.070-0.697l7.926 3.17c0.639 0.256 1.059 0.875 1.059 1.564v6.341c0 1.287-0.512 2.522-1.422 3.433s-2.145 1.422-3.433 1.422c-0.034 0-0.068-0.001-0.102-0.003-6.594-0.401-12.813-3.201-17.484-7.872s-7.471-10.89-7.872-17.484c-0.002-0.034-0.003-0.068-0.003-0.102 0-1.287 0.511-2.522 1.422-3.433zM28.283 1.895c0.658-0.658 1.724-0.658 2.382 0s0.658 1.724 0 2.382l-5.051 5.051h2.275c0.93 0 1.684 0.754 1.684 1.684s-0.754 1.684-1.684 1.684h-6.341c-0.447 0-0.875-0.177-1.191-0.493s-0.493-0.744-0.493-1.191v-6.341c0-0.93 0.754-1.684 1.684-1.684s1.684 0.754 1.684 1.684v2.275l5.051-5.051z" />
</symbol><symbol viewBox="0 0 32 32" id="place">
<title>place</title>
<path d="M15.995 2.475c-2.271 0-4.499 0.799-6.229 2.251-1.002 0.842-1.841 1.883-2.427 3.025-1.826 3.56-0.865 6.984 1.185 10.744 2.028 3.718 4.924 7.655 6.75 10.014 0.101 0.131 0.21 0.287 0.298 0.413 0.024 0.035 0.047 0.068 0.068 0.098 0.112 0.159 0.203 0.281 0.289 0.378 0.025 0.028 0.046 0.050 0.065 0.069 0.019-0.019 0.041-0.042 0.066-0.070 0.087-0.098 0.178-0.22 0.29-0.379 0.021-0.030 0.044-0.063 0.069-0.098 0.088-0.127 0.197-0.282 0.298-0.413 1.83-2.357 4.728-6.294 6.756-10.012 2.051-3.759 3.012-7.183 1.186-10.743-0.586-1.142-1.423-2.185-2.424-3.026-1.752-1.472-4-2.251-6.242-2.251zM15.903 29.544c0-0 0.002-0.001 0.005-0.003-0.004 0.002-0.005 0.003-0.005 0.003zM16.082 29.541c0.004 0.002 0.005 0.003 0.005 0.003s-0.002-0.001-0.005-0.003zM8.175 2.831c2.184-1.833 4.978-2.831 7.82-2.831 2.801-0 5.619 0.97 7.834 2.831 1.246 1.046 2.294 2.347 3.034 3.791 2.404 4.687 0.949 9.091-1.215 13.058-2.126 3.897-5.123 7.961-6.974 10.345-0.059 0.077-0.116 0.158-0.194 0.27-0.031 0.045-0.066 0.094-0.105 0.15-0.122 0.173-0.28 0.391-0.465 0.599-0.35 0.393-0.98 0.957-1.914 0.957s-1.564-0.564-1.914-0.958c-0.185-0.208-0.342-0.426-0.464-0.599-0.039-0.056-0.074-0.105-0.105-0.15-0.078-0.112-0.135-0.193-0.194-0.27-1.846-2.384-4.841-6.447-6.966-10.344-2.164-3.967-3.619-8.37-1.215-13.058 0.742-1.446 1.791-2.745 3.037-3.791zM16 9.819c-1.439 0-2.605 1.166-2.605 2.605s1.166 2.605 2.605 2.605c1.439 0 2.605-1.166 2.605-2.605s-1.166-2.605-2.605-2.605zM10.92 12.424c0-2.806 2.274-5.080 5.080-5.080s5.080 2.274 5.080 5.080c0 2.806-2.274 5.080-5.080 5.080s-5.080-2.274-5.080-5.080z" />
</symbol><symbol viewBox="0 0 31 32" id="question">
<title>question</title>
<path d="M14.998 4.185c-6.649 0-12.089 5.508-12.089 12.364s5.44 12.364 12.089 12.364c6.649 0 12.089-5.508 12.089-12.364s-5.44-12.364-12.089-12.364zM0 16.548c0-8.407 6.687-15.273 14.998-15.273s14.998 6.866 14.998 15.273c0 8.407-6.687 15.273-14.998 15.273s-14.998-6.866-14.998-15.273zM13.442 9.463c0.687-0.266 1.429-0.352 2.158-0.25s1.419 0.391 2.006 0.835c0.587 0.444 1.052 1.030 1.355 1.7s0.435 1.406 0.385 2.14c-0.050 0.734-0.28 1.445-0.671 2.068s-0.932 1.139-1.575 1.498c-0.643 0.359-1.366 0.547-2.103 0.547-0.803-0-1.454-0.652-1.454-1.455s0.652-1.454 1.455-1.454c0.237 0 0.473-0.061 0.684-0.179s0.394-0.29 0.528-0.504c0.134-0.214 0.215-0.461 0.232-0.718s-0.029-0.514-0.134-0.746c-0.105-0.232-0.264-0.43-0.459-0.578s-0.421-0.241-0.657-0.274c-0.236-0.033-0.476-0.006-0.7 0.081s-0.426 0.231-0.586 0.422c-0.516 0.616-1.433 0.698-2.049 0.182s-0.698-1.433-0.182-2.049c0.472-0.564 1.079-1.001 1.765-1.268zM14.998 21.016c0.803 0 1.455 0.651 1.455 1.455v0.020c0 0.803-0.651 1.455-1.455 1.455s-1.454-0.651-1.454-1.455v-0.020c0-0.803 0.651-1.455 1.454-1.455z" />
</symbol><symbol viewBox="0 0 58 32" id="slider-arrow">
<title>slider-arrow</title>
<path d="M14.813 0.134c-0.224 0.070-0.592 0.24-0.816 0.374-0.227 0.134-3.162 3.002-6.522 6.371-6.848 6.87-6.467 6.41-6.467 7.856s-0.384 0.979 6.515 7.901c6.704 6.72 6.634 6.659 7.846 6.797 0.618 0.070 1.434-0.128 2.003-0.486 1.238-0.781 1.766-2.432 1.238-3.862-0.189-0.515-0.451-0.803-3.475-3.843l-3.27-3.286 42.422-0.051 0.541-0.253c1.187-0.557 1.814-1.472 1.885-2.758 0.077-1.347-0.55-2.403-1.779-3.008l-0.643-0.317-42.426-0.051 3.27-3.286c3.056-3.069 3.283-3.325 3.485-3.862 0.282-0.755 0.243-1.898-0.083-2.528-0.346-0.648-0.864-1.164-1.494-1.498l-0.019-0.009c-0.646-0.304-1.622-0.394-2.211-0.198z" />
</symbol><symbol viewBox="0 0 32 32" id="soc-dropbox">
<title>soc-dropbox</title>
<path d="M9.413 1.12l-9.413 6.146 6.509 5.212 9.491-5.86-6.587-5.497zM0 17.689l9.413 6.145 6.586-5.497-9.491-5.86-6.509 5.211zM16 18.337l6.587 5.497 9.413-6.145-6.509-5.212-9.491 5.86zM32 7.265l-9.413-6.145-6.587 5.497 9.491 5.86 6.509-5.212zM16.019 19.52l-6.606 5.481-2.827-1.846v2.069l9.433 5.656 9.432-5.656v-2.069l-2.826 1.846-6.606-5.481z" />
</symbol><symbol viewBox="0 0 32 32" id="soc-facebook">
<title>soc-facebook</title>
<path d="M18.478 32v-14.597h4.9l0.734-5.689h-5.634v-3.632c0-1.647 0.457-2.769 2.819-2.769l3.013-0.001v-5.088c-0.521-0.069-2.309-0.224-4.39-0.224-4.344 0-7.317 2.651-7.317 7.52v4.195h-4.913v5.689h4.913v14.597h5.875z" />
</symbol><symbol viewBox="0 0 32 32" id="soc-gplus">
<title>soc-gplus</title>
<path d="M28.451 14.231v-3.549h-2.531v3.549h-3.55v2.531h3.55v3.549h2.531v-3.549h3.549v-2.531h-3.549zM10.178 13.962v4.058h5.438c-0.168 0.853-0.51 1.636-1.115 2.296-2.18 2.379-6.243 2.355-8.569-0.039s-2.301-6.255 0.057-8.617c2.242-2.247 5.855-2.344 8.039-0.207l-0.004 0.005 2.964-2.964c-3.97-3.611-10.094-3.556-13.959 0.258-3.999 3.945-4.042 10.392-0.096 14.39s10.786 4.038 14.484 0.066c2.231-2.398 2.873-5.836 2.341-9.246h-9.578z" />
</symbol><symbol viewBox="0 0 32 32" id="soc-instagram">
<title>soc-instagram</title>
<path d="M16 2.884c4.272 0 4.778 0.016 6.465 0.093 1.56 0.071 2.407 0.332 2.971 0.551 0.747 0.29 1.28 0.637 1.84 1.197s0.907 1.093 1.197 1.84c0.219 0.564 0.48 1.411 0.551 2.971 0.076 1.687 0.093 2.193 0.093 6.465s-0.017 4.778-0.093 6.465c-0.071 1.56-0.332 2.407-0.551 2.971-0.29 0.747-0.637 1.28-1.197 1.84s-1.093 0.907-1.84 1.197c-0.564 0.219-1.411 0.48-2.971 0.551-1.687 0.077-2.193 0.093-6.465 0.093s-4.779-0.016-6.465-0.093c-1.56-0.071-2.407-0.332-2.971-0.551-0.747-0.29-1.28-0.637-1.84-1.197s-0.907-1.093-1.197-1.84c-0.219-0.564-0.48-1.411-0.551-2.971-0.077-1.687-0.093-2.193-0.093-6.465s0.016-4.778 0.093-6.465c0.071-1.56 0.332-2.407 0.551-2.971 0.29-0.747 0.637-1.28 1.197-1.84s1.093-0.906 1.84-1.197c0.564-0.219 1.411-0.479 2.971-0.551 1.687-0.077 2.193-0.093 6.465-0.093zM16 0.001c-4.346 0-4.89 0.018-6.597 0.096-1.703 0.078-2.866 0.348-3.884 0.744-1.052 0.409-1.944 0.956-2.834 1.846s-1.436 1.782-1.845 2.833c-0.396 1.018-0.666 2.181-0.744 3.884-0.078 1.706-0.096 2.251-0.096 6.596s0.019 4.89 0.096 6.596c0.078 1.703 0.348 2.866 0.744 3.883 0.409 1.052 0.956 1.944 1.845 2.834s1.782 1.437 2.834 1.845c1.018 0.395 2.181 0.666 3.884 0.744 1.706 0.078 2.251 0.096 6.597 0.096s4.89-0.018 6.597-0.096c1.703-0.077 2.866-0.348 3.884-0.744 1.052-0.409 1.944-0.956 2.834-1.845s1.437-1.782 1.845-2.834c0.396-1.018 0.666-2.181 0.744-3.883 0.078-1.707 0.096-2.251 0.096-6.596s-0.018-4.89-0.096-6.596c-0.077-1.703-0.348-2.866-0.744-3.884-0.409-1.052-0.956-1.944-1.845-2.833s-1.782-1.437-2.834-1.846c-1.018-0.395-2.181-0.666-3.884-0.744-1.707-0.078-2.251-0.096-6.597-0.096zM16 7.785c-4.538 0-8.216 3.678-8.216 8.216s3.679 8.215 8.216 8.215 8.216-3.678 8.216-8.215c0-4.537-3.679-8.216-8.216-8.216zM16 21.333c-2.945 0-5.333-2.387-5.333-5.333s2.388-5.333 5.333-5.333 5.333 2.388 5.333 5.333c0 2.945-2.388 5.333-5.333 5.333zM26.46 7.46c0 1.060-0.86 1.92-1.92 1.92s-1.92-0.86-1.92-1.92c0-1.060 0.86-1.92 1.92-1.92s1.92 0.859 1.92 1.92z" />
</symbol><symbol viewBox="0 0 32 32" id="soc-linkedin">
<title>soc-linkedin</title>
<path d="M0.526 10.636h6.635v21.336h-6.635v-21.336zM3.844 0.028c2.12 0 3.843 1.723 3.843 3.844 0 2.123-1.723 3.846-3.843 3.846-2.126 0-3.844-1.723-3.844-3.846 0-2.121 1.718-3.844 3.844-3.844zM11.321 10.636h6.362v2.914h0.091c0.886-1.677 3.049-3.446 6.276-3.446 6.711 0 7.95 4.418 7.95 10.166v11.703h-6.624v-10.375c0-2.476-0.048-5.658-3.447-5.658-3.451 0-3.977 2.696-3.977 5.479v10.555h-6.63v-21.336z" />
</symbol><symbol viewBox="0 0 30 32" id="soc-mailru">
<title>soc-mailru</title>
<path d="M19.548 0.748c-3.118-0.943-6.456-0.857-9.521 0.245s-5.693 3.163-7.495 5.876c-1.802 2.713-2.683 5.934-2.511 9.187s1.387 6.363 3.465 8.871 4.909 4.28 8.073 5.053c2.985 0.73 6.117 0.534 8.982-0.555 0.172-0.065 0.342-0.134 0.512-0.205 0.857-0.362 1.258-1.35 0.897-2.207s-1.35-1.258-2.207-0.897c-0.132 0.056-0.264 0.109-0.398 0.16-2.228 0.846-4.664 0.999-6.986 0.431-2.461-0.601-4.663-1.98-6.279-3.93s-2.561-4.37-2.695-6.9c-0.134-2.53 0.551-5.035 1.953-7.145s3.446-3.713 5.83-4.57c2.384-0.858 4.98-0.924 7.405-0.191s4.549 2.229 6.057 4.264c2.081 2.807 2.318 5.942 2.318 9.283 0 0.546-0.217 1.069-0.603 1.456s-0.91 0.603-1.456 0.603c-0.546 0-1.070-0.217-1.456-0.603-0.243-0.243-0.39-0.521-0.483-0.876-0.249-0.95-0.113-1.972-0.148-2.941-0.023-0.633-0.12-1.244-0.256-1.811-0.207-0.865-0.561-1.72-1.149-2.541-1.389-1.939-3.666-3.207-6.24-3.207-4.237 0-7.673 3.435-7.673 7.673s3.435 7.672 7.673 7.672c2.094 0 3.99-0.838 5.373-2.196 0.152 0.209 0.325 0.413 0.521 0.609 1.018 1.018 2.398 1.589 3.837 1.589s2.82-0.572 3.837-1.589c1.018-1.018 1.59-2.398 1.59-3.837v-2.243c0.004-3.257-1.041-6.429-2.98-9.046s-4.67-4.539-7.788-5.482zM10.853 15.271c0-2.377 1.927-4.304 4.304-4.304 1.442 0 2.718 0.707 3.502 1.801 0.304 0.425 0.493 0.868 0.611 1.363 0.185 0.775 0.224 1.479 0.086 2.091-0.071 0.316-0.177 0.619-0.314 0.904-0.695 1.452-2.175 2.449-3.885 2.449-2.377 0-4.304-1.927-4.304-4.304z" />
</symbol><symbol viewBox="0 0 32 32" id="soc-ok">
<title>soc-ok</title>
<path d="M16 16.516c4.556 0 8.259-3.703 8.259-8.256 0-4.555-3.703-8.26-8.259-8.26-4.555 0-8.259 3.705-8.259 8.26 0 4.553 3.704 8.256 8.259 8.256zM16 4.84c1.886 0 3.42 1.534 3.42 3.42 0 1.884-1.534 3.418-3.42 3.418-1.884 0-3.42-1.534-3.42-3.418 0-1.886 1.536-3.42 3.42-3.42zM19.342 23.253c1.681-0.383 3.303-1.048 4.796-1.986 1.13-0.712 1.471-2.207 0.759-3.337-0.712-1.132-2.205-1.473-3.337-0.761-3.383 2.127-7.739 2.126-11.12 0-1.132-0.712-2.625-0.371-3.336 0.761-0.712 1.131-0.373 2.624 0.758 3.337 1.493 0.937 3.115 1.603 4.796 1.986l-4.617 4.617c-0.944 0.945-0.944 2.477 0.001 3.422 0.473 0.472 1.092 0.708 1.71 0.708 0.62 0 1.24-0.236 1.712-0.708l4.536-4.537 4.539 4.537c0.944 0.944 2.476 0.944 3.421 0s0.946-2.478 0-3.422l-4.618-4.617z" />
</symbol><symbol viewBox="0 0 32 32" id="soc-pinterest">
<title>soc-pinterest</title>
<path d="M16.749 0c-8.733 0-13.137 6.261-13.137 11.482 0 3.161 1.197 5.974 3.764 7.022 0.421 0.172 0.798 0.006 0.92-0.46 0.085-0.323 0.285-1.137 0.375-1.475 0.123-0.461 0.075-0.623-0.265-1.025-0.74-0.873-1.213-2.004-1.213-3.605 0-4.645 3.476-8.803 9.051-8.803 4.937 0 7.648 3.016 7.648 7.044 0 5.3-2.345 9.773-5.828 9.773-1.923 0-3.363-1.59-2.901-3.541 0.552-2.329 1.623-4.841 1.623-6.522 0-1.505-0.808-2.759-2.479-2.759-1.966 0-3.545 2.034-3.545 4.758 0 1.735 0.586 2.908 0.586 2.908s-2.011 8.523-2.364 10.015c-0.702 2.973-0.105 6.617-0.055 6.985 0.029 0.218 0.31 0.27 0.437 0.105 0.181-0.236 2.523-3.127 3.319-6.015 0.225-0.818 1.293-5.052 1.293-5.052 0.639 1.218 2.505 2.291 4.49 2.291 5.909 0 9.918-5.387 9.918-12.597 0-5.452-4.619-10.53-11.638-10.53z" />
</symbol><symbol viewBox="0 0 32 32" id="soc-skype">
<title>soc-skype</title>
<path d="M30.838 18.619c0.149-0.849 0.227-1.722 0.227-2.613 0-8.291-6.722-15.013-15.014-15.013-0.893 0-1.767 0.079-2.617 0.228-1.318-0.763-2.847-1.202-4.479-1.202-4.946 0-8.955 4.009-8.955 8.953 0 1.661 0.454 3.216 1.242 4.548-0.135 0.809-0.206 1.639-0.206 2.485 0 8.291 6.722 15.013 15.014 15.013 0.87 0 1.723-0.075 2.553-0.217 1.309 0.75 2.825 1.18 4.442 1.18 4.945 0 8.955-4.009 8.955-8.954 0-1.603-0.424-3.107-1.162-4.409zM10.002 19.137c1.495-0.080 1.994 1.699 3.106 2.467 1.233 0.835 5.105 1.723 6.242-0.865 0.84-2.235-1.628-2.575-4.059-3.173-3.721-0.796-6.836-1.756-6.809-5.558-0.017-3.666 2.886-5.174 5.677-5.427 3.32-0.296 5.769 0.401 7.586 1.879 2.118 1.806 0.975 3.779-0.538 3.821-2.143 0.059-2.115-2.791-5.651-2.746-3.056-0.048-4.455 2.895-1.262 3.926 4.477 1.183 8.067 1.039 9.225 4.814 0.89 3.531-1.25 6.823-6.471 7.246-4.15 0.219-6.336-0.944-7.755-2.363-1.723-1.96-0.912-3.934 0.709-4.021z" />
</symbol><symbol viewBox="0 0 32 32" id="soc-telegram">
<title>soc-telegram</title>
<path d="M29.885 2.688l-28.68 10.858c-1.569 0.453-1.519 2.002-0.358 2.375l7.186 2.243 2.749 8.429c0.334 0.922 0.607 1.27 1.178 1.278 0.6 0.008 0.83-0.211 1.453-0.762 0.729-0.685 1.841-1.763 3.596-3.47l7.475 5.522c1.376 0.759 2.369 0.366 2.711-1.278l4.686-23.179c0.502-2.014-0.68-2.615-1.997-2.017zM9.161 17.648l16.337-10.249c0.805-0.54 1.057 0.063 0.694 0.478l-13.559 12.196-0.696 6.087-2.777-8.512z" />
</symbol><symbol viewBox="0 0 32 32" id="soc-twitter">
<title>soc-twitter</title>
<path d="M32 6.076c-1.177 0.522-2.443 0.875-3.771 1.034 1.355-0.813 2.396-2.099 2.887-3.632-1.269 0.753-2.674 1.299-4.169 1.593-1.197-1.276-2.904-2.073-4.792-2.073-3.626 0-6.565 2.939-6.565 6.565 0 0.515 0.058 1.016 0.17 1.496-5.456-0.273-10.294-2.887-13.531-6.858-0.565 0.969-0.889 2.097-0.889 3.3 0 2.277 1.159 4.287 2.921 5.464-1.076-0.034-2.089-0.329-2.974-0.821-0.001 0.028-0.001 0.055-0.001 0.083 0 3.18 2.263 5.834 5.266 6.437-0.551 0.15-1.131 0.23-1.729 0.23-0.423 0-0.834-0.041-1.236-0.117 0.836 2.607 3.26 4.506 6.133 4.558-2.247 1.761-5.078 2.811-8.153 2.811-0.53 0-1.053-0.031-1.566-0.092 2.905 1.863 6.356 2.95 10.064 2.95 12.076 0 18.679-10.003 18.679-18.678 0-0.284-0.006-0.568-0.019-0.849 1.283-0.926 2.396-2.082 3.276-3.399z" />
</symbol><symbol viewBox="0 0 32 32" id="soc-viber">
<title>soc-viber</title>
<path d="M27.267 2.969c-1.179-1.007-2.561-1.615-4.046-2.003-3.73-0.975-7.51-1.218-11.33-0.7-1.936 0.262-3.807 0.774-5.528 1.74-2.021 1.134-3.412 2.767-4.027 5.033-0.439 1.615-0.651 3.26-0.734 4.926-0.123 2.458-0.043 4.899 0.586 7.297 0.728 2.774 2.311 4.818 5.023 5.906 0.296 0.119 0.574 0.282 0.868 0.404 0.272 0.113 0.355 0.293 0.353 0.587-0.013 1.919-0.007 3.837-0.007 5.842 0.713-0.687 1.204-1.192 1.562-1.597 1.068-1.207 2.079-2.212 3.192-3.36 0.565-0.582 0.327-0.553 1.203-0.539 1.030 0.017 2.649 0.057 3.673-0.023 1.954-0.153 3.891-0.401 5.777-0.968 2.394-0.719 4.312-2.001 5.285-4.421 0.258-0.643 0.506-1.289 0.67-1.962 0.935-3.853 0.81-7.712 0.029-11.567-0.363-1.79-1.129-3.381-2.549-4.594zM15.368 5.305c0.020-0.371 0.233-0.514 0.582-0.497 2.973 0.142 5.211 1.026 6.932 3.343 1.009 1.358 1.553 3.191 1.608 4.894 0 0.253 0.011 0.506-0.003 0.759-0.016 0.282-0.139 0.497-0.455 0.5-0.32 0.003-0.477-0.17-0.499-0.495-0.084-1.255-0.326-2.477-0.806-3.644-0.929-2.261-2.709-3.479-4.998-4.067-0.605-0.156-1.217-0.284-1.842-0.334-0.282-0.023-0.54-0.083-0.519-0.457zM18.367 8.462c-0.605-0.212-1.217-0.382-1.852-0.474-0.308-0.045-0.527-0.208-0.471-0.568 0.054-0.339 0.275-0.473 0.6-0.442 2.075 0.197 3.696 0.952 4.812 2.749 0.522 0.84 0.829 2.031 0.783 2.924-0.033 0.633-0.129 0.796-0.491 0.787-0.527-0.015-0.449-0.448-0.489-0.766-0.062-0.491-0.169-0.97-0.302-1.444-0.384-1.369-1.243-2.295-2.59-2.766zM20.123 11.961c-0.020 0.176-0.021 0.297-0.049 0.412-0.056 0.231-0.197 0.371-0.449 0.375-0.255 0.004-0.393-0.147-0.459-0.367-0.046-0.152-0.058-0.313-0.088-0.47-0.162-0.836-0.64-1.384-1.471-1.607-0.102-0.027-0.208-0.042-0.31-0.070-0.262-0.073-0.589-0.078-0.6-0.462-0.009-0.318 0.233-0.507 0.669-0.534 0.296-0.018 0.755 0.128 1.021 0.257 1.092 0.533 1.602 1.282 1.736 2.465zM24.492 20.772c-0.576 1.305-1.562 2.166-2.942 2.556-0.5 0.142-0.985 0.020-1.442-0.174-6.291-2.678-10.837-7.096-13.412-13.474-0.186-0.46-0.294-0.94-0.277-1.379 0.003-1.642 1.445-3.161 3.024-3.248 0.437-0.024 0.814 0.124 1.129 0.419 1.111 1.040 2.003 2.247 2.656 3.62 0.354 0.745 0.206 1.27-0.432 1.804-0.102 0.085-0.212 0.161-0.32 0.239-0.846 0.619-1.035 1.251-0.631 2.226 0.663 1.599 1.744 2.854 3.201 3.783 0.55 0.351 1.112 0.684 1.746 0.868 0.58 0.169 1.046-0.012 1.419-0.47 0.042-0.052 0.081-0.106 0.12-0.16 0.811-1.123 1.679-1.318 2.855-0.588 1.008 0.626 1.958 1.339 2.861 2.11 0.611 0.521 0.767 1.135 0.444 1.867z" />
</symbol><symbol viewBox="0 0 32 32" id="soc-vimeo">
<title>soc-vimeo</title>
<path d="M31.996 7.476c0.045 1.608-0.282 3.098-0.842 4.544-0.969 2.503-2.38 4.757-3.936 6.924-2.149 2.995-4.395 5.91-7.239 8.298-1.395 1.17-2.892 2.146-4.722 2.525-1.272 0.263-2.344-0.079-3.239-0.964-1.279-1.264-2.028-2.852-2.514-4.549-0.909-3.175-1.752-6.37-2.631-9.555-0.291-1.052-0.647-2.081-1.159-3.050-0.109-0.205-0.223-0.408-0.352-0.6-0.761-1.131-1.273-1.244-2.425-0.526-0.409 0.255-0.813 0.52-1.205 0.801-0.216 0.155-0.358 0.163-0.527-0.068-0.348-0.475-0.717-0.936-1.085-1.396-0.145-0.182-0.179-0.329 0.023-0.5 2.264-1.913 4.311-4.082 6.768-5.767 0.888-0.608 1.818-1.129 2.965-1.088 1.158 0.040 2.063 0.516 2.734 1.444 0.763 1.057 1.089 2.28 1.3 3.54 0.486 2.905 0.871 5.828 1.604 8.687 0.244 0.952 0.522 1.896 1.009 2.76 0.595 1.058 1.245 1.195 2.064 0.32 1.777-1.9 3.111-4.087 3.974-6.548 0.192-0.546 0.21-1.122 0.181-1.696-0.056-1.098-0.69-1.746-1.786-1.831-0.759-0.059-1.496 0.053-2.216 0.298-0.329 0.112-0.489 0.057-0.355-0.338 0.702-2.062 1.677-3.959 3.44-5.323 2.071-1.603 4.44-2.002 6.946-1.417 1.921 0.448 2.729 1.932 3.059 3.739 0.084 0.455 0.118 0.92 0.168 1.335z" />
</symbol><symbol viewBox="0 0 32 32" id="soc-vk">
<title>soc-vk</title>
<path d="M15.657 25.051h1.912c0 0 0.578-0.064 0.873-0.382 0.271-0.292 0.263-0.84 0.263-0.84s-0.037-2.566 1.154-2.944c1.174-0.372 2.682 2.48 4.28 3.577 1.209 0.83 2.127 0.648 2.127 0.648l4.274-0.060c0 0 2.236-0.138 1.175-1.895-0.087-0.144-0.617-1.3-3.178-3.676-2.68-2.487-2.321-2.085 0.907-6.387 1.966-2.62 2.752-4.219 2.506-4.904-0.234-0.653-1.68-0.481-1.68-0.481l-4.812 0.030c0 0-0.357-0.049-0.621 0.11-0.258 0.155-0.424 0.516-0.424 0.516s-0.762 2.027-1.777 3.751c-2.143 3.638-3 3.83-3.35 3.604-0.815-0.527-0.611-2.115-0.611-3.243 0-3.526 0.535-4.996-1.041-5.376-0.523-0.126-0.908-0.209-2.246-0.223-1.717-0.017-3.17 0.005-3.993 0.409-0.547 0.268-0.97 0.865-0.712 0.899 0.318 0.042 1.038 0.194 1.42 0.714 0.493 0.671 0.476 2.177 0.476 2.177s0.284 4.15-0.662 4.666c-0.649 0.353-1.538-0.368-3.448-3.669-0.979-1.69-1.717-3.559-1.717-3.559s-0.143-0.349-0.397-0.536c-0.308-0.226-0.739-0.298-0.739-0.298l-4.573 0.030c0 0-0.686 0.019-0.938 0.318-0.224 0.266-0.018 0.814-0.018 0.814s3.579 8.374 7.633 12.594c3.717 3.869 7.937 3.616 7.937 3.616z" />
</symbol><symbol viewBox="0 0 32 32" id="soc-whatsapp">
<title>soc-whatsapp</title>
<path d="M16.288 0c-8.609 0-15.588 6.979-15.588 15.588 0 2.945 0.817 5.699 2.237 8.049l-2.814 8.363 8.631-2.763c2.234 1.234 4.802 1.939 7.535 1.939 8.611 0 15.59-6.98 15.59-15.588 0-8.609-6.979-15.588-15.59-15.588zM16.288 28.564c-2.635 0-5.090-0.791-7.14-2.145l-4.987 1.596 1.621-4.819c-1.553-2.139-2.471-4.768-2.471-7.608 0-7.156 5.822-12.977 12.977-12.977 7.157 0 12.978 5.822 12.978 12.977s-5.821 12.976-12.978 12.976zM23.597 19.13c-0.391-0.214-2.31-1.25-2.67-1.396s-0.623-0.222-0.903 0.166c-0.28 0.387-1.077 1.255-1.318 1.512-0.242 0.257-0.476 0.281-0.867 0.067-0.39-0.213-1.657-0.682-3.126-2.094-1.143-1.099-1.893-2.431-2.11-2.838s-0.001-0.614 0.205-0.805c0.186-0.172 0.416-0.451 0.623-0.675s0.28-0.388 0.423-0.649c0.142-0.26 0.085-0.495-0.007-0.698s-0.815-2.19-1.116-2.999c-0.302-0.809-0.638-0.688-0.87-0.698-0.232-0.008-0.496-0.052-0.762-0.061s-0.7 0.074-1.080 0.458c-0.38 0.384-1.444 1.308-1.517 3.267-0.073 1.957 1.281 3.903 1.47 4.175s2.587 4.517 6.572 6.263c3.986 1.745 4.007 1.213 4.738 1.174s2.39-0.875 2.757-1.791c0.367-0.916 0.396-1.713 0.303-1.882s-0.354-0.28-0.745-0.493z" />
</symbol><symbol viewBox="0 0 32 32" id="soc-yadisk">
<title>soc-yadisk</title>
<path d="M10.594 25.983c-0.537 0.021-1.114-0.070-1.692-0.029-0.753 0.054-1.507 0.047-2.259 0.022-1.481-0.048-2.951-0.196-4.371-0.655-0.606-0.195-1.184-0.449-1.673-0.873-0.612-0.53-0.759-1.198-0.418-1.929 0.293-0.63 0.771-1.109 1.285-1.554 1.014-0.877 2.161-1.555 3.344-2.172 2.395-1.248 4.91-2.199 7.479-3.014 1.936-0.615 3.898-1.134 5.884-1.561 1.584-0.34 3.179-0.623 4.79-0.809 1.024-0.118 2.051-0.201 3.082-0.232 1.237-0.037 2.465 0.010 3.678 0.272 0.552 0.119 1.087 0.293 1.557 0.621 0.484 0.339 0.768 0.784 0.715 1.399-0.025 0.292-0.115 0.566-0.243 0.828-0.351 0.718-0.873 1.304-1.445 1.849-1.182 1.127-2.523 2.039-3.948 2.82-1.106 0.606-2.175 1.277-3.291 1.863-2.017 1.059-4.158 1.787-6.364 2.335-1.225 0.304-2.463 0.535-3.716 0.677-0.78 0.088-1.564 0.149-2.393 0.14zM11.498 24.723c0.747 0.004 1.429-0.078 2.108-0.182 1.398-0.214 2.772-0.542 4.13-0.933 1.454-0.42 2.887-0.898 4.241-1.585 0.521-0.265 1.033-0.551 1.427-0.999 0.363-0.413 0.279-0.791-0.219-1.017-0.104-0.047-0.213-0.085-0.324-0.113-0.345-0.088-0.698-0.122-1.053-0.133-0.892-0.026-1.776 0.067-2.655 0.204-1.463 0.23-2.898 0.58-4.305 1.039-1.32 0.43-2.614 0.924-3.805 1.651-0.383 0.234-0.756 0.485-1.039 0.84-0.41 0.514-0.281 0.911 0.352 1.1 0.391 0.116 0.794 0.134 1.142 0.127zM0.522 19.685c0.142-0.197 0.384-0.447 0.405-0.469 0.678-0.689 1.025-0.988 1.718-1.662 0.916-0.89 1.83-1.783 2.624-2.79 0.551-0.698 0.88-1.503 1.179-2.326 0.313-0.862 0.63-1.722 1.083-2.526 0.805-1.428 1.975-2.443 3.475-3.083 0.955-0.407 1.949-0.674 2.982-0.781 1.827-0.19 3.482 0.276 4.986 1.317 0.58 0.402 1.138 0.834 1.656 1.31 1.031 0.947 2.251 1.521 3.573 1.923 1.615 0.491 3.268 0.829 4.902 1.243 0.168 0.043 0.334 0.092 0.494 0.169-0.289-0.060-0.578-0.126-0.869-0.178-0.666-0.118-1.337-0.198-2.013-0.241-0.665-0.042-1.33-0.071-1.996-0.055-1.075 0.024-2.146 0.096-3.215 0.218-2.233 0.253-4.428 0.696-6.602 1.255-2.365 0.609-4.692 1.339-6.953 2.269-1.984 0.816-3.897 1.769-5.663 2.999-0.574 0.4-1.126 0.829-1.64 1.304-0.035 0.033-0.074 0.062-0.127 0.105zM13.242 11.152c0.573 0 1.119-0.278 1.431-0.729 0.425-0.614 0.23-1.384-0.436-1.722-0.7-0.355-1.652-0.125-2.114 0.509-0.213 0.293-0.308 0.614-0.229 0.972 0.127 0.581 0.674 0.971 1.348 0.971zM17.403 7.866c-0.044 0-0.087-0.003-0.131 0-0.784 0.059-1.093 0.658-0.629 1.287 0.57 0.772 1.351 1.152 2.326 1.046 0.519-0.057 0.779-0.365 0.717-0.806-0.020-0.142-0.077-0.273-0.158-0.391-0.513-0.744-1.254-1.063-2.125-1.136zM10.223 10.796c0.013-0.697-0.493-1.025-1.129-0.732-0.334 0.153-0.608 0.384-0.836 0.669-0.382 0.477-0.638 1.004-0.61 1.633 0.022 0.505 0.354 0.759 0.849 0.66 0.053-0.011 0.107-0.023 0.158-0.040 0.825-0.268 1.552-1.283 1.569-2.19z" />
</symbol><symbol viewBox="0 0 32 32" id="soc-yandex">
<title>soc-yandex</title>
<path d="M23.168-0h-4.85c-4.763 0-8.805 3.626-8.805 10.667 0 4.224 1.958 7.338 5.445 8.875l-6.508 11.776c-0.213 0.385 0 0.683 0.339 0.683h3.020c0.255 0 0.425-0.085 0.511-0.298l5.913-11.564h2.128v11.564c0 0.128 0.128 0.298 0.296 0.298h2.639c0.255 0 0.341-0.128 0.341-0.341v-31.233c0-0.299-0.17-0.427-0.468-0.427zM20.36 17.408h-1.788c-2.807 0-5.529-2.048-5.529-7.168 0-5.334 2.552-7.51 5.147-7.51h2.17v14.678z" />
</symbol><symbol viewBox="0 0 32 32" id="soc-youtube">
<title>soc-youtube</title>
<path d="M31.446 8.436c-0.392-1.702-1.784-2.957-3.459-3.144-3.968-0.443-7.984-0.445-11.982-0.443-3.999-0.002-8.015 0-11.983 0.443-1.676 0.188-3.067 1.442-3.458 3.144-0.557 2.424-0.563 5.068-0.563 7.564s0 5.14 0.557 7.564c0.391 1.701 1.783 2.956 3.459 3.144 3.968 0.443 7.984 0.445 11.983 0.443 3.998 0.002 8.015 0 11.982-0.443 1.675-0.187 3.068-1.442 3.459-3.143 0.557-2.424 0.56-5.069 0.56-7.564s0.003-5.141-0.554-7.564zM12.644 20.362v-8.872l8.46 4.436-8.46 4.436z" />
</symbol><symbol viewBox="0 0 34 32" id="spinner11">
<title>spinner11</title>
<path d="M21.199 10.355c0 0.535 0.434 0.969 0.969 0.969h9.724v-9.716c0-0.538-0.436-0.973-0.973-0.973s-0.973 0.436-0.973 0.973v6.347c-3.749-5.49-10.736-7.751-16.99-5.497s-10.194 8.45-9.581 15.069c0.614 6.619 5.625 11.987 12.187 13.052s13.014-2.441 15.69-8.526c0.2-0.499-0.031-1.066-0.524-1.282s-1.067-0.003-1.299 0.482c-2.323 5.291-7.947 8.325-13.644 7.36s-10.010-5.679-10.462-11.44c-0.453-5.761 3.070-11.092 8.547-12.934s11.505 0.275 14.626 5.138h-6.32c-0.26-0.002-0.51 0.1-0.694 0.284s-0.286 0.434-0.284 0.694z" />
</symbol><symbol viewBox="0 0 30 32" id="star">
<title>star</title>
<path d="M14.89 0.632c0.658 0 1.255 0.383 1.53 0.98l3.703 8.050 8.231 1.28c0.62 0.096 1.135 0.53 1.336 1.124s0.055 1.252-0.379 1.705l-6.033 6.301 1.427 8.925c0.102 0.639-0.171 1.28-0.702 1.649s-1.227 0.402-1.79 0.083l-7.315-4.136-7.333 4.137c-0.563 0.318-1.259 0.285-1.789-0.084s-0.803-1.010-0.701-1.648l1.427-8.925-6.033-6.301c-0.434-0.453-0.58-1.11-0.379-1.705s0.716-1.028 1.337-1.124l8.231-1.28 3.703-8.050c0.275-0.598 0.872-0.98 1.53-0.98zM14.89 6.346l-2.551 5.545c-0.236 0.513-0.713 0.874-1.271 0.96l-5.933 0.923 4.378 4.573c0.365 0.381 0.53 0.91 0.447 1.431l-1.008 6.303 5.12-2.888c0.514-0.29 1.143-0.29 1.656 0.001l5.099 2.883-1.007-6.298c-0.083-0.521 0.082-1.050 0.446-1.431l4.378-4.573-5.933-0.923c-0.558-0.087-1.035-0.447-1.271-0.96l-2.551-5.545z" />
</symbol><symbol viewBox="0 0 32 32" id="success">
<title>success</title>
<path d="M0 16c0-8.837 7.163-16 16-16 4.243 0 8.313 1.686 11.314 4.686s4.686 7.070 4.686 11.314c0 8.837-7.163 16-16 16s-16-7.163-16-16zM13.31 23.76l13.14-13.13 0.020 0.020c0.552-0.552 0.552-1.448 0-2s-1.448-0.552-2 0l-11.14 11.13-5.78-5.78c-0.552-0.552-1.448-0.552-2 0s-0.552 1.448 0 2l7.76 7.76z" />
</symbol><symbol viewBox="0 0 29 32" id="trash">
<title>trash</title>
<path d="M10.721 0.054c-1.159 0.196-2.212 1.206-2.455 2.352-0.055 0.259-0.071 0.752-0.071 2.186l-0.001 1.853-7.055 0.028-0.252 0.115c-0.331 0.174-0.595 0.436-0.766 0.755l-0.005 0.010c-0.124 0.279-0.118 0.855 0.010 1.135 0.244 0.529 0.758 0.87 1.313 0.87h0.301l0.025 0.159c0.015 0.086 0.364 4.204 0.777 9.151s0.775 9.168 0.804 9.379c0.071 0.506 0.329 1.213 0.615 1.695 0.134 0.223 0.407 0.566 0.644 0.809 0.636 0.652 1.312 1.046 2.23 1.3l0.461 0.127 7.030 0.015c6.321 0.013 7.079 0.007 7.516-0.064 0.651-0.113 1.233-0.334 1.754-0.647l-0.023 0.013c0.532-0.316 1.242-1.024 1.555-1.551 0.287-0.484 0.544-1.191 0.615-1.696 0.029-0.211 0.391-4.432 0.804-9.379s0.762-9.065 0.777-9.151l0.025-0.159h0.301c0.556 0 1.069-0.34 1.313-0.87 0.128-0.279 0.134-0.855 0.010-1.135-0.176-0.329-0.44-0.591-0.761-0.76l-0.010-0.005-0.252-0.115-7.055-0.028-0.001-1.853c-0.001-2.087-0.022-2.275-0.324-2.889-0.241-0.492-0.816-1.078-1.299-1.325-0.724-0.372-0.442-0.351-4.582-0.361-2.060-0.004-3.825 0.012-3.969 0.036zM17.977 4.691l0.012 1.757h-6.886v-1.737c0-0.956 0.015-1.753 0.033-1.77 0.017-0.017 1.561-0.028 3.43-0.020l3.398 0.013 0.013 1.757zM24.401 9.393c0.012 0.020-0.303 3.844-0.697 8.497 0.84-12.612 0.567-9.466 0.298-6.318l-1.064 15.438c-0.033 0.449-0.081 0.746-0.151 0.932-0.143 0.383-0.505 0.765-0.911 0.964l-0.323 0.159h-14.016l-0.323-0.159c-0.406-0.199-0.768-0.582-0.911-0.964-0.070-0.186-0.118-0.483-0.151-0.932-0.028-0.362-0.372-4.467-0.767-9.12s-0.708-8.477-0.697-8.497c0.025-0.047 19.687-0.047 19.712 0zM10.732 13.047l-0.010 0.003c0.167-0.067 0.35-0.104 0.541-0.104 0.581 0 1.083 0.339 1.322 0.839l0.118 0.25v10.375l-0.138 0.294-0.004 0.009c-0.223 0.475-0.705 0.803-1.265 0.803-0.008 0-0.017-0-0.024-0l0.001-0c-0.008 0-0.016 0-0.025 0-0.559 0-1.042-0.329-1.268-0.812l-0.138-0.294v-10.375l0.118-0.25 0.004-0.009c0.157-0.324 0.426-0.583 0.767-0.73zM17.277 13.047l-0.010 0.003c0.167-0.067 0.35-0.104 0.541-0.104 0.581 0 1.083 0.339 1.322 0.839l0.118 0.25v10.375l-0.138 0.294-0.004 0.009c-0.223 0.475-0.705 0.803-1.265 0.803-0.008 0-0.017-0-0.023-0l0.001-0c-0.008 0-0.016 0-0.025 0-0.559 0-1.042-0.329-1.268-0.812l-0.138-0.294v-10.375l0.118-0.25 0.004-0.009c0.157-0.324 0.426-0.583 0.767-0.73z" />
</symbol></defs><use id="arrow-back-usage" xlink:href="#arrow-back" class="sprite-symbol-usage" /><use id="arrow-back-2-usage" xlink:href="#arrow-back-2" class="sprite-symbol-usage" /><use id="arrow-right-usage" xlink:href="#arrow-right" class="sprite-symbol-usage" /><use id="bag-usage" xlink:href="#bag" class="sprite-symbol-usage" /><use id="basket_icon-usage" xlink:href="#basket_icon" class="sprite-symbol-usage" /><use id="burger-menu-usage" xlink:href="#burger-menu" class="sprite-symbol-usage" /><use id="calendar-usage" xlink:href="#calendar" class="sprite-symbol-usage" /><use id="close-usage" xlink:href="#close" class="sprite-symbol-usage" /><use id="danger-usage" xlink:href="#danger" class="sprite-symbol-usage" /><use id="dropdown-usage" xlink:href="#dropdown" class="sprite-symbol-usage" /><use id="exit-usage" xlink:href="#exit" class="sprite-symbol-usage" /><use id="external-usage" xlink:href="#external" class="sprite-symbol-usage" /><use id="eye-usage" xlink:href="#eye" class="sprite-symbol-usage" /><use id="eye-closed-usage" xlink:href="#eye-closed" class="sprite-symbol-usage" /><use id="file-usage" xlink:href="#file" class="sprite-symbol-usage" /><use id="file-2-usage" xlink:href="#file-2" class="sprite-symbol-usage" /><use id="file-doc-usage" xlink:href="#file-doc" class="sprite-symbol-usage" /><use id="file-docx-usage" xlink:href="#file-docx" class="sprite-symbol-usage" /><use id="file-gif-usage" xlink:href="#file-gif" class="sprite-symbol-usage" /><use id="file-jpg-usage" xlink:href="#file-jpg" class="sprite-symbol-usage" /><use id="file-mp3-usage" xlink:href="#file-mp3" class="sprite-symbol-usage" /><use id="file-mp4-usage" xlink:href="#file-mp4" class="sprite-symbol-usage" /><use id="file-pdf-usage" xlink:href="#file-pdf" class="sprite-symbol-usage" /><use id="file-png-usage" xlink:href="#file-png" class="sprite-symbol-usage" /><use id="file-ppt-usage" xlink:href="#file-ppt" class="sprite-symbol-usage" /><use id="file-rar-usage" xlink:href="#file-rar" class="sprite-symbol-usage" /><use id="file-txt-usage" xlink:href="#file-txt" class="sprite-symbol-usage" /><use id="file-xls-usage" xlink:href="#file-xls" class="sprite-symbol-usage" /><use id="file-xlsx-usage" xlink:href="#file-xlsx" class="sprite-symbol-usage" /><use id="file-zip-usage" xlink:href="#file-zip" class="sprite-symbol-usage" /><use id="form-usage" xlink:href="#form" class="sprite-symbol-usage" /><use id="heart-usage" xlink:href="#heart" class="sprite-symbol-usage" /><use id="info-usage" xlink:href="#info" class="sprite-symbol-usage" /><use id="lock-usage" xlink:href="#lock" class="sprite-symbol-usage" /><use id="map_pin-usage" xlink:href="#map_pin" class="sprite-symbol-usage" /><use id="phone-usage" xlink:href="#phone" class="sprite-symbol-usage" /><use id="place-usage" xlink:href="#place" class="sprite-symbol-usage" /><use id="question-usage" xlink:href="#question" class="sprite-symbol-usage" /><use id="slider-arrow-usage" xlink:href="#slider-arrow" class="sprite-symbol-usage" /><use id="soc-dropbox-usage" xlink:href="#soc-dropbox" class="sprite-symbol-usage" /><use id="soc-facebook-usage" xlink:href="#soc-facebook" class="sprite-symbol-usage" /><use id="soc-gplus-usage" xlink:href="#soc-gplus" class="sprite-symbol-usage" /><use id="soc-instagram-usage" xlink:href="#soc-instagram" class="sprite-symbol-usage" /><use id="soc-linkedin-usage" xlink:href="#soc-linkedin" class="sprite-symbol-usage" /><use id="soc-mailru-usage" xlink:href="#soc-mailru" class="sprite-symbol-usage" /><use id="soc-ok-usage" xlink:href="#soc-ok" class="sprite-symbol-usage" /><use id="soc-pinterest-usage" xlink:href="#soc-pinterest" class="sprite-symbol-usage" /><use id="soc-skype-usage" xlink:href="#soc-skype" class="sprite-symbol-usage" /><use id="soc-telegram-usage" xlink:href="#soc-telegram" class="sprite-symbol-usage" /><use id="soc-twitter-usage" xlink:href="#soc-twitter" class="sprite-symbol-usage" /><use id="soc-viber-usage" xlink:href="#soc-viber" class="sprite-symbol-usage" /><use id="soc-vimeo-usage" xlink:href="#soc-vimeo" class="sprite-symbol-usage" /><use id="soc-vk-usage" xlink:href="#soc-vk" class="sprite-symbol-usage" /><use id="soc-whatsapp-usage" xlink:href="#soc-whatsapp" class="sprite-symbol-usage" /><use id="soc-yadisk-usage" xlink:href="#soc-yadisk" class="sprite-symbol-usage" /><use id="soc-yandex-usage" xlink:href="#soc-yandex" class="sprite-symbol-usage" /><use id="soc-youtube-usage" xlink:href="#soc-youtube" class="sprite-symbol-usage" /><use id="spinner11-usage" xlink:href="#spinner11" class="sprite-symbol-usage" /><use id="star-usage" xlink:href="#star" class="sprite-symbol-usage" /><use id="success-usage" xlink:href="#success" class="sprite-symbol-usage" /><use id="trash-usage" xlink:href="#trash" class="sprite-symbol-usage" /></svg>