<!-- Generated by IcoMoon.io -->
<svg version="1.1" xmlns="http://www.w3.org/2000/svg" width="32" height="32" viewBox="0 0 32 32">
<title>close</title>
<path d="M18.351 15.964l13.264-13.229c0.544-0.633 0.507-1.577-0.084-2.166s-1.537-0.626-2.172-0.084l-13.264 13.229-13.264-13.244c-0.627-0.626-1.645-0.626-2.272 0s-0.627 1.64 0 2.266l13.28 13.229-13.28 13.228c-0.457 0.39-0.655 1.002-0.515 1.585s0.597 1.038 1.181 1.178c0.584 0.14 1.198-0.058 1.589-0.513l13.28-13.229 13.264 13.229c0.635 0.542 1.581 0.506 2.172-0.084s0.628-1.533 0.084-2.166l-13.264-13.228z"></path>
</svg>
