<!-- Generated by IcoMoon.io -->
<svg version="1.1" xmlns="http://www.w3.org/2000/svg" width="29" height="32" viewBox="0 0 29 32">
<title>trash</title>
<path d="M10.721 0.054c-1.159 0.196-2.212 1.206-2.455 2.352-0.055 0.259-0.071 0.752-0.071 2.186l-0.001 1.853-7.055 0.028-0.252 0.115c-0.331 0.174-0.595 0.436-0.766 0.755l-0.005 0.010c-0.124 0.279-0.118 0.855 0.010 1.135 0.244 0.529 0.758 0.87 1.313 0.87h0.301l0.025 0.159c0.015 0.086 0.364 4.204 0.777 9.151s0.775 9.168 0.804 9.379c0.071 0.506 0.329 1.213 0.615 1.695 0.134 0.223 0.407 0.566 0.644 0.809 0.636 0.652 1.312 1.046 2.23 1.3l0.461 0.127 7.030 0.015c6.321 0.013 7.079 0.007 7.516-0.064 0.651-0.113 1.233-0.334 1.754-0.647l-0.023 0.013c0.532-0.316 1.242-1.024 1.555-1.551 0.287-0.484 0.544-1.191 0.615-1.696 0.029-0.211 0.391-4.432 0.804-9.379s0.762-9.065 0.777-9.151l0.025-0.159h0.301c0.556 0 1.069-0.34 1.313-0.87 0.128-0.279 0.134-0.855 0.010-1.135-0.176-0.329-0.44-0.591-0.761-0.76l-0.010-0.005-0.252-0.115-7.055-0.028-0.001-1.853c-0.001-2.087-0.022-2.275-0.324-2.889-0.241-0.492-0.816-1.078-1.299-1.325-0.724-0.372-0.442-0.351-4.582-0.361-2.060-0.004-3.825 0.012-3.969 0.036zM17.977 4.691l0.012 1.757h-6.886v-1.737c0-0.956 0.015-1.753 0.033-1.77 0.017-0.017 1.561-0.028 3.43-0.020l3.398 0.013 0.013 1.757zM24.401 9.393c0.012 0.020-0.303 3.844-0.697 8.497 0.84-12.612 0.567-9.466 0.298-6.318l-1.064 15.438c-0.033 0.449-0.081 0.746-0.151 0.932-0.143 0.383-0.505 0.765-0.911 0.964l-0.323 0.159h-14.016l-0.323-0.159c-0.406-0.199-0.768-0.582-0.911-0.964-0.070-0.186-0.118-0.483-0.151-0.932-0.028-0.362-0.372-4.467-0.767-9.12s-0.708-8.477-0.697-8.497c0.025-0.047 19.687-0.047 19.712 0zM10.732 13.047l-0.010 0.003c0.167-0.067 0.35-0.104 0.541-0.104 0.581 0 1.083 0.339 1.322 0.839l0.118 0.25v10.375l-0.138 0.294-0.004 0.009c-0.223 0.475-0.705 0.803-1.265 0.803-0.008 0-0.017-0-0.024-0l0.001-0c-0.008 0-0.016 0-0.025 0-0.559 0-1.042-0.329-1.268-0.812l-0.138-0.294v-10.375l0.118-0.25 0.004-0.009c0.157-0.324 0.426-0.583 0.767-0.73zM17.277 13.047l-0.010 0.003c0.167-0.067 0.35-0.104 0.541-0.104 0.581 0 1.083 0.339 1.322 0.839l0.118 0.25v10.375l-0.138 0.294-0.004 0.009c-0.223 0.475-0.705 0.803-1.265 0.803-0.008 0-0.017-0-0.023-0l0.001-0c-0.008 0-0.016 0-0.025 0-0.559 0-1.042-0.329-1.268-0.812l-0.138-0.294v-10.375l0.118-0.25 0.004-0.009c0.157-0.324 0.426-0.583 0.767-0.73z"></path>
</svg>
